<?xml version="1.0" encoding="UTF-8"?>
<svg id="_レイヤー_1" data-name="レイヤー 1" xmlns="http://www.w3.org/2000/svg" viewBox="0 0 850.39 850.39">
  <defs>
    <style>
      .cls-1 {
        fill: #e60012;
      }
    </style>
  </defs>
  <path class="cls-1" d="m380.52,55.69c34.73-7.45,60.79-12.39,78.18-14.89,17.33-2.44,38.45-2.44,63.29,0,29.78,2.5,53.34,24.84,70.73,67.01,14.89,34.79,32.23,104.24,52.12,208.48l89.35,495.14h-178.7l-14.89-171.25-219.65,44.67-29.78,122.85-174.98-3.72c17.33-67.01,44.67-160.08,81.9-279.22,34.73-111.69,95.51-268.05,182.42-469.08Zm-11.17,465.36l148.92-3.72c-7.45-62.01-13.67-109.19-18.61-141.47-7.45-39.67-19.89-93.07-37.23-160.08l-93.07,305.28Z"/>
</svg>