<?xml version="1.0" encoding="UTF-8"?>
<svg id="_レイヤー_1" data-name="レイヤー 1" xmlns="http://www.w3.org/2000/svg" viewBox="0 0 850.39 850.39">
  <defs>
    <style>
      .cls-1 {
        fill: #e60012;
      }
    </style>
  </defs>
  <path class="cls-1" d="m148.64,807.72L208.21,74.32l227.1-26.06c57.06-7.45,101.74-7.45,134.02,0,54.56,12.45,93.07,39.73,115.41,81.9,19.84,37.23,22.34,89.35,7.45,156.36-9.95,34.79-27.34,64.57-52.12,89.35-14.89,17.39-32.28,33.51-52.12,48.4,34.73,24.84,58.29,49.68,70.74,74.46,12.39,24.84,18.61,55.84,18.61,93.07,0,39.73-9.95,76.96-29.78,111.69-22.34,39.73-52.12,67.01-89.35,81.9-37.23,14.89-83.18,22.34-137.75,22.34H148.64Zm171.25-297.83l-7.45,163.81c42.17-2.44,75.68-8.67,100.52-18.61,44.67-17.33,71.96-43.4,81.9-78.18,9.89-37.23,0-64.51-29.78-81.9-17.39-9.89-44.67-9.89-81.9,0-22.34,5-43.45,9.95-63.29,14.89Zm18.61-305.28l-14.89,174.98c44.67-9.89,79.4-18.61,104.24-26.06,49.62-14.89,79.4-39.67,89.35-74.46,9.89-39.67,4.94-65.73-14.89-78.18-12.45-7.45-26.06-11.17-40.95-11.17-17.39,0-58.34,5-122.85,14.89Z"/>
</svg>