<?xml version="1.0" encoding="UTF-8"?>
<svg id="_レイヤー_1" data-name="レイヤー 1" xmlns="http://www.w3.org/2000/svg" viewBox="0 0 850.39 850.39">
  <defs>
    <style>
      .cls-1 {
        fill: #e60012;
      }
    </style>
  </defs>
  <path class="cls-1" d="m520.1,338.95c7.45-22.34,13.61-45.9,18.61-70.73,9.89-42.17,9.89-71.96,0-89.35-19.89-32.23-50.9-34.73-93.07-7.45-37.23,24.84-65.79,72.01-85.63,141.47-17.39,62.07-27.34,117.91-29.78,167.53-2.5,126.58,26.06,194.87,85.63,204.76,37.23,5,71.96-8.67,104.24-40.95,17.33-17.33,44.67-57.06,81.9-119.13l70.73,74.46c-32.28,59.57-62.07,103.02-89.35,130.3-76.96,76.96-165.09,101.74-264.32,74.46-49.68-14.89-89.35-48.4-119.13-100.52-29.78-52.12-45.95-112.91-48.4-182.42-5-158.8,43.39-294.11,145.19-405.79,57.06-62.01,132.74-88.07,227.09-78.18,69.46,7.45,119.13,37.23,148.92,89.35,19.84,34.79,28.5,75.74,26.06,122.85,0,22.34-5,52.12-14.89,89.35h-163.81Z"/>
</svg>