<?xml version="1.0" encoding="UTF-8"?>
<svg id="_レイヤー_1" data-name="レイヤー 1" xmlns="http://www.w3.org/2000/svg" viewBox="0 0 850.39 850.39">
  <defs>
    <style>
      .cls-1 {
        fill: #e60012;
      }
    </style>
  </defs>
  <path class="cls-1" d="m160.81,813.43L201.76,80.03l122.85-29.78c57.06-12.39,111.69-16.11,163.81-11.17,47.12,5,86.85,22.34,119.13,52.12,52.12,49.68,79.4,124.13,81.9,223.37,2.44,131.58-28.56,244.49-93.07,338.78-47.18,69.51-101.8,115.41-163.81,137.75-42.23,14.89-91.85,22.34-148.92,22.34h-122.85ZM335.78,202.88l-29.78,457.91c54.56-7.45,96.79-22.34,126.58-44.67,37.23-27.28,67.01-78.18,89.35-152.64,19.84-69.46,24.78-129.02,14.89-178.7-12.45-57.06-33.51-89.35-63.29-96.79-29.78-7.45-75.74-2.44-137.75,14.89Z"/>
</svg>