<?xml version="1.0" encoding="utf-8"?>
<!-- Generator: Adobe Illustrator 25.0.0, SVG Export Plug-In . SVG Version: 6.00 Build 0)  -->
<svg version="1.1" id="圖層_1" xmlns="http://www.w3.org/2000/svg" xmlns:xlink="http://www.w3.org/1999/xlink" x="0px" y="0px"
	 viewBox="0 0 345.3 313.1" style="enable-background:new 0 0 345.3 313.1;" xml:space="preserve">
<style type="text/css">
	.st0{fill:#008A45;}
	.st1{clip-path:url(#SVGID_2_);}
	.st2{fill:url(#長方形_106_1_);}
	.st3{fill:none;}
</style>
<g id="グループ化_47" transform="translate(0 0)">
	<g id="グループ化_45" transform="translate(0 0)">
		<g id="グループ化_40">
			<path id="パス_179" d="M82.1,254.9c-0.7,0-1.3,0.6-1.3,1.3v26.1c0,0.7,0.6,1.3,1.3,1.3h23.2c0.7,0,1.3-0.6,1.3-1.3v-26.1
				c0-0.7-0.6-1.3-1.3-1.3L82.1,254.9z M102.6,280.2H84.7v-9.5h17.9L102.6,280.2z M102.6,267.3H84.7v-9h17.9L102.6,267.3z"/>
			<path id="パス_180" d="M132.1,269.1l4.9,13.6h4.3l-5.2-13.8c-0.3-0.8-0.5-1.6-0.5-2.5v-6.2h5.3v-3.4h-13.3v-3.3h-4.2v3.3h-13.3
				v3.4h5.2v6.2c0,0.9-0.2,1.7-0.5,2.5l-5.2,13.8h4.3l4.9-13.6c0.3-0.8,0.5-1.6,0.5-2.5v-6.3h4v14.8h-5.8v3.4h5.8v5.4h4.2v-5.4h5.8
				v-3.4h-5.8v-14.8h3.9v6.3C131.6,267.5,131.8,268.3,132.1,269.1L132.1,269.1z"/>
			<path id="パス_181" d="M172.7,258.9h-12.1v-1.5h10.5v-2.8h-24.7v2.8h10.5v1.5h-12.1c-0.7,0-1.3,0.6-1.3,1.3l0,0v6.6h3.9v-5.1
				h2.5v3.7c0,0.7,0.6,1.3,1.3,1.3h15.2c0.7,0,1.3-0.6,1.3-1.3v-3.7h2.5v5.1h3.8v-6.6C174,259.5,173.4,258.9,172.7,258.9
				L172.7,258.9z M153.4,261.6h3.4v2.2h-3.4V261.6z M164.1,263.8h-3.6v-2.2h3.6V263.8z"/>
			<path id="パス_182" d="M171.6,279.3c0.7,0,1.3-0.6,1.3-1.3v-8.9c0-0.7-0.6-1.3-1.3-1.3h-25.7c-0.7,0-1.3,0.6-1.3,1.3v8.9
				c0,0.7,0.6,1.3,1.3,1.3h11v3.2c0,0.7,0.6,1.3,1.3,1.3h14.8v-3h-12.3v-1.6H171.6z M160.6,270.4h8.4v1.8h-8.4V270.4z M160.6,274.9
				h8.4v1.8h-8.4V274.9z M148.4,270.4h8.4v1.8h-8.4V270.4z M148.4,276.7v-1.8h8.4v1.8H148.4z"/>
			<path id="パス_183" d="M207.4,268.2h-12.9v-1.8l9.3-2.8c0.7-0.3,1.2-1,1.2-1.8v-5.6c0-0.7-0.5-1.3-1.1-1.3c0,0-0.1,0-0.1,0H179
				v3.5h21.8v2.4l-6.3,1.9h-4.1v5.5h-13.7v3.4h13.7v9l-9.5,0l0.7,3.3h11.5c0.7,0,1.3-0.6,1.3-1.3v-11h12.9V268.2z"/>
			<path id="パス_184" d="M236.1,272.2h2.7c0.7,0,1.3-0.6,1.3-1.3v-9.5c0-0.7-0.6-1.3-1.3-1.3h-11v-1.6h13.5v-3h-13.5v-1.7H224
				v1.7h-13.5v3H224v1.6h-11c-0.7,0-1.3,0.6-1.3,1.3v9.5c0,0.7,0.6,1.3,1.3,1.3h19.2v1.7h-21.6v3h4l1.1,5.1h3.8l-1.1-5.1h13.7v3.6
				h-10.9l0.6,3.3h12.9c0.7,0,1.3-0.6,1.3-1.3V277h5.3v-3h-5.3L236.1,272.2z M224.1,269.4h-8.4v-1.8h8.4V269.4z M224.1,264.8h-8.4
				V263h8.4V264.8z M227.8,263h8.4v1.8h-8.4V263z M227.8,267.6h8.4v1.8h-8.4V267.6z"/>
			<path id="パス_185" d="M249.1,283.9v-14.5h8.5c0.7,0,1.3-0.6,1.3-1.3v-11.9c0-0.7-0.6-1.3-1.3-1.3h-11c-0.7,0-1.3,0.6-1.3,1.3
				v27.8H249.1z M255.1,266.5h-6v-2.7h6V266.5z M255.1,260.6h-6v-2.8h6V260.6z"/>
			<path id="パス_186" d="M264.8,283.9h8.6c0.7,0,1.3-0.6,1.3-1.3c0,0,0,0,0,0v-26.4c0-0.7-0.6-1.3-1.3-1.3c0,0,0,0,0,0h-11
				c-0.7,0-1.3,0.6-1.3,1.3V268c0,0.7,0.6,1.3,1.3,1.3h8.5v11.1h-6.8L264.8,283.9z M271,266.5h-6v-2.7h6V266.5z M271,260.6h-6v-2.8
				h6V260.6z"/>
			<path id="パス_187" d="M309.5,272.9h-13.1v-1.1l5.5-1.5c0.5-0.2,0.8-0.7,0.9-1.2v-4.4c0-0.5-0.4-0.9-0.9-0.9h-16.1v3h12.8v1.5
				l-2.5,0.6h-3.6v4h-13.7v3h13.7v4.4h-7.1l1.3,3.6h8.6c0.7,0,1.3-0.6,1.3-1.3v-6.6h13.1L309.5,272.9z"/>
			<path id="パス_188" d="M308.1,258.7h-4.5l1.8-4.3h-4.1l-1.8,4.3h-3.2l-1.8-4.3h-4.2l1.8,4.3h-3.7l-1.8-4.3h-4.1l1.8,4.3h-3.9
				c-0.7,0-1.3,0.6-1.3,1.3c0,0,0,0,0,0v10.3h4.1v-8.6h22.2v8.1h4V260C309.4,259.3,308.8,258.7,308.1,258.7L308.1,258.7z"/>
			<path id="パス_189" d="M329.4,277l-5.1-11.5c-0.6-1.1-1-2.3-1-3.6v-0.6h3.3v-3.2h-3.9v-3.9h-3.9v3.9h-5.3v3.2h4v1
				c-0.2,1.9-0.6,3.9-1.3,5.7c-0.5,1.4-4.8,14.6-4.8,14.6h3.9l3.4-13v14.2h3.9v-14.4l2.6,7.6H329.4z"/>
			<path id="パス_190" d="M342.7,263.9c-0.4-0.6-0.7-1.3-0.8-2.1v-0.5h1.8v-3.2h-6v-3.9h-4v3.9h-5.9v3.2h1.9v0.5
				c-0.1,0.8-0.4,1.5-0.9,2.1l-2.1,3.3h2.9v2.7c0,0.9,0.3,1.7,0.9,2.4l3.1,3.6l-6.7,7.9h4.9l4.2-5.2l4.3,5.2h5l-6.9-8l3-3.4
				c0.5-0.8,0.8-1.7,0.8-2.6l0-2.5h2.4L342.7,263.9z M333.5,270v-3.2h-2l1.4-2.3c0.5-0.8,0.7-1.8,0.7-2.7v-0.5h4.5v0.5
				c0,0.9,0.2,1.7,0.5,2.5l1.4,2.5h-1.7v3.5l-2.3,2.8L333.5,270z"/>
		</g>
		<g id="グループ化_44">
			<path id="パス_191" class="st0" d="M62.8,247.6c-2.8-2.8-8.4-1-12.2,0.8c-10.4-5.7-23.4-2-29.1,8.4c-4,7.3-3.5,16.2,1.4,22.9
				c-7.4,4.3-15,8.1-22.9,11.5l0.1,0.1c8.7-2.1,17.3-5,25.5-8.6c8.6,8.1,22.1,7.8,30.3-0.8c5.9-6.2,7.5-15.3,4.2-23.1
				C63.8,253.4,64.4,249.2,62.8,247.6 M26.5,262c2-9.2,11.1-15.1,20.4-13.2c1.5,0.3,4.5,1.5,2.7,6.2c-1.7,4.7-7.3,12.1-20.2,20.7
				C26.4,271.8,25.4,266.8,26.5,262 M60.2,269.4c-2,9.3-11.3,15.2-20.6,13.1c-2.5-0.6-4.9-1.7-6.9-3.2c4.1-2.1,8.1-4.3,12-6.8
				c7-4.5,11.7-9,14.8-13C60.6,262.7,60.9,266.1,60.2,269.4"/>
			<g id="グループ化_43">
				<g>
					<defs>
						<path id="SVGID_1_" d="M75.3,240.1c0,3-2.4,5.4-5.4,5.4c-3,0-5.4-2.4-5.4-5.4c0-3,2.4-5.4,5.4-5.4
							C72.9,234.7,75.3,237.2,75.3,240.1C75.3,240.1,75.3,240.1,75.3,240.1z"/>
					</defs>
					<clipPath id="SVGID_2_">
						<use xlink:href="#SVGID_1_"  style="overflow:visible;"/>
					</clipPath>
					<g id="グループ化_42" class="st1">
						<g id="グループ化_41">
							
								<radialGradient id="長方形_106_1_" cx="-461.3315" cy="583.9694" r="0.5" gradientTransform="matrix(10.8138 0 0 10.811 5059.7231 -6072.0601)" gradientUnits="userSpaceOnUse">
								<stop  offset="0" style="stop-color:#99D69D"/>
								<stop  offset="0.107" style="stop-color:#99D69D"/>
								<stop  offset="0.461" style="stop-color:#33A55A"/>
								<stop  offset="0.994" style="stop-color:#00532A"/>
								<stop  offset="1" style="stop-color:#00532A"/>
							</radialGradient>
							<rect id="長方形_106" x="64.5" y="234.7" class="st2" width="10.8" height="10.8"/>
							<path id="パス_192" class="st3" d="M64.5,240.1c0,3,2.4,5.4,5.4,5.4c3,0,5.4-2.4,5.4-5.4s-2.4-5.4-5.4-5.4
								c-1.4,0-2.8,0.6-3.8,1.6C65.1,237.3,64.5,238.7,64.5,240.1"/>
						</g>
					</g>
				</g>
				<path id="パス_194" class="st0" d="M62.8,247.6c-2.8-2.8-8.4-1-12.2,0.8c-10.4-5.7-23.4-2-29.1,8.4c-4,7.3-3.5,16.2,1.4,22.9
					c-7.4,4.3-15,8.1-22.9,11.5l0.1,0.1c8.7-2.1,17.3-5,25.5-8.6c8.6,8.1,22.1,7.8,30.3-0.8c5.9-6.2,7.5-15.3,4.2-23.1
					C63.8,253.4,64.4,249.2,62.8,247.6z M26.5,262c2-9.2,11.1-15.1,20.4-13.2c1.5,0.3,4.5,1.5,2.7,6.2c-1.7,4.7-7.3,12.1-20.2,20.7
					C26.4,271.8,25.4,266.8,26.5,262z M60.2,269.4c-2,9.3-11.2,15.2-20.6,13.1c-2.5-0.6-4.9-1.7-6.9-3.2c4.1-2.1,8.1-4.3,12-6.8
					c7-4.5,11.7-9,14.8-13C60.6,262.7,60.9,266.1,60.2,269.4L60.2,269.4z"/>
			</g>
		</g>
	</g>
	<g id="グループ化_46" transform="translate(0 0)">
		<path id="パス_195" d="M120.9,239.2v1.2h-11.1v-1.2H120.9z"/>
		<path id="パス_196" d="M130,234.3v1.5c0,1.7,0.4,3.5,1.2,5c0.9,1.7,2.3,3,4,3.8l-0.7,1c-2.6-1.4-4.5-3.9-5-6.8
			c-0.5,3-2.4,5.5-5.1,6.8l-0.7-0.9c1.9-0.8,3.4-2.3,4.3-4.2c0.6-1.5,0.9-3,1-4.6v-1.5H130z"/>
		<path id="パス_197" d="M143.3,235.5v1c-1.5,1-2.5,2.8-2.5,4.6c-0.1,1.4,0.9,2.7,2.3,2.9c0.2,0,0.3,0,0.5,0
			c0.9,0.1,1.7-0.3,2.3-0.9c0.5-0.7,0.8-1.5,0.8-2.4c0-1.5-0.3-3-0.9-4.3c-0.2-0.5-0.6-1.2-0.6-1.3l1.1-0.3c0.5,1.7,1.8,3.1,3.5,3.8
			l-0.4,1.1c-0.9-0.4-1.6-1-2.2-1.7c0.3,0.9,0.4,1.8,0.4,2.8c0,3.7-2.4,4.3-4,4.3c-1,0.1-2-0.2-2.8-0.9c-0.8-0.8-1.2-1.8-1.2-2.9
			c0-1.8,0.8-3.5,2.1-4.7l-2.3,0.1v-1.1H143.3z"/>
		<path id="パス_198" d="M158.5,234.7c0,0.9,0,1.5,0,2.3c0,0.5,0.1,1,0.3,1.5c1.4-0.5,2.9-0.8,4.4-1l0.1,1.1
			c-1.7,0.2-3.4,0.5-5,1.1c-0.8,0.3-2.8,1.1-2.8,2.7c0,1.5,1.6,1.6,4.5,1.6c1.2,0,2.5-0.1,3.7-0.2l0,1.1c-1,0.1-2,0.2-2.9,0.1
			c-3.2,0-4-0.2-4.9-0.5c-0.9-0.3-1.5-1.1-1.5-2.1c0-1.8,1.7-3,3.4-3.7c-0.4-0.7-0.4-0.9-0.5-4.2L158.5,234.7z"/>
		<path id="パス_199" d="M171.4,234.8c-0.3,1.1-0.5,2.2-0.6,3.3c0.6-1.4,1.9-2.4,3.4-2.4c1.8,0,3.1,1.5,3.1,4.4
			c0,3.8-2.1,5.1-6.6,5.1l-0.2-1c3.4,0,5.7-0.5,5.7-4c0-0.6,0-3.5-2.1-3.5c-1.7,0-2.7,1.9-3,2.4c-0.3,0.5-0.4,1-0.4,1.5
			c0,0.1,0.1,1.3,0.1,1.4l-1.1,0.2c-0.1-0.5-0.1-1.1-0.1-1.6c0-2,0.2-4,0.5-5.9L171.4,234.8z"/>
		<path id="パス_200" d="M185.3,234.9c-0.4,1.8-0.5,3.6-0.5,5.5c0,1.5,0.1,3.1,0.4,4.6l-1.1,0.1c-0.3-1.5-0.5-3-0.4-4.5
			c0-2,0.1-3.9,0.5-5.8L185.3,234.9z M188.4,240.3c-0.4,0.5-0.6,1-0.6,1.6c0,1.1,0.7,1.4,2.7,1.4c0.9,0,1.8,0,2.7-0.1v1.1
			c-0.7,0.1-1.5,0.1-2.2,0.1c-1.5,0-4.2,0-4.2-2.4c0-0.8,0.3-1.5,0.7-2.1L188.4,240.3z M192.9,235.8v1h-5.8v-1.1L192.9,235.8z"/>
		<path id="パス_201" d="M200.5,245.2c-0.6-0.9-1.3-1.7-2-2.5l0.9-0.7c0.8,0.8,1.5,1.6,2.1,2.5L200.5,245.2z"/>
		<path id="パス_202" d="M215.3,235.9v-1.6h1v1.6h4.4v1h-4.4v2h5.1v1h-4.6c1.2,1.7,2.9,3,4.8,3.9l-0.6,1c-1.9-1-3.4-2.4-4.6-4.1v5
			h-1v-5c-1.2,1.7-2.8,3.1-4.6,4.1l-0.6-1c1.9-0.8,3.6-2.1,4.7-3.9h-4.6v-1h5.1v-2H211v-1H215.3z"/>
		<path id="パス_203" d="M231.5,235.5v-1.2h1v1.2h4.7v1h-4.7v3.1h5.1v1h-4.5c1.2,1.6,2.8,2.8,4.6,3.6l-0.6,1
			c-1.9-0.9-3.5-2.3-4.7-4v4.5h-1v-4.5c-1.2,1.7-2.8,3-4.6,4l-0.6-0.9c1.8-0.8,3.4-2,4.6-3.6h-4.5v-1h5v-3.1h-4.6v-1H231.5z
			 M228.9,239.4c-0.2-0.8-0.5-1.5-0.9-2.2l0.9-0.4c0.4,0.7,0.7,1.5,0.9,2.2L228.9,239.4z M234,239c0.4-0.7,0.7-1.4,0.9-2.1l1,0.3
			c-0.2,0.8-0.6,1.5-1,2.2L234,239z"/>
		<path id="パス_204" d="M253.1,243.3c-2.1-1.7-3.9-3.4-4.3-3.8c-1.7-1.7-1.8-1.8-2.2-1.8c-0.4,0-0.7,0.2-0.9,0.5
			c-0.2,0.2-0.4,0.5-2.4,2.9l-0.8-1c0.4-0.4,2.1-2.4,2.5-2.7c0.4-0.5,1-0.8,1.6-0.8c0.8,0,1,0.2,2.8,1.9c1.4,1.3,2.9,2.5,4.4,3.7
			L253.1,243.3z"/>
		<path id="パス_205" d="M263.6,244.1c1.9-0.2,2.9-0.5,3.6-1.2c0.7-0.9,1.1-2,1-3.1c0.1-1.9-1.3-3.6-3.2-3.7c-0.1,0-0.3,0-0.4,0
			c0,2.5-0.9,8-3.6,8c-1.4,0-2.2-1.7-2.2-3.5c-0.1-2.9,2.2-5.4,5.1-5.5c0.2,0,0.4,0,0.5,0c3.3,0,5,2.1,5,4.8c0,4.6-3.8,5.1-5.4,5.2
			L263.6,244.1z M261.5,237c-1.1,0.9-1.7,2.3-1.7,3.7c0,0.9,0.3,2.3,1.2,2.3c0.6,0,1-0.6,1.3-1.1c0.8-1.8,1.2-3.7,1.2-5.7
			C262.8,236.3,262.1,236.6,261.5,237L261.5,237z"/>
		<path id="パス_206" d="M278.8,235.9c-0.7,1.3-1.4,2.5-2.3,3.6c0.9,0,1.3-0.1,1.7-0.1c-0.1-0.3-0.2-0.6-0.4-0.9l0.8-0.3
			c0.4,0.7,0.7,1.5,1,2.3l-0.9,0.3c0-0.2-0.1-0.3-0.2-0.7c-0.7,0.1-0.9,0.1-1.1,0.1v5.4h-1v-5.3c-1.2,0.1-1.5,0.1-2,0.1l0-0.9
			c0.3,0,0.4,0,1,0c0.4-0.5,0.5-0.7,0.7-0.9c-0.5-0.6-1.1-1.2-1.7-1.7l0.5-0.7c0.1,0.1,0.2,0.2,0.4,0.3c0.5-0.7,0.8-1.5,1.2-2.2
			l0.9,0.3c-0.4,0.9-0.9,1.7-1.4,2.5c0,0.1,0.4,0.4,0.7,0.8c0.5-0.8,0.9-1.5,1.4-2.3L278.8,235.9z M274.4,244.5
			c0.4-1,0.6-2.1,0.6-3.2l0.9,0.1c-0.1,1.2-0.2,2.3-0.6,3.4L274.4,244.5z M278.5,244.2c-0.1-0.9-0.3-1.9-0.5-2.8l0.8-0.2
			c0.3,0.9,0.5,1.9,0.6,2.8L278.5,244.2z M279.1,238.2c0.9-1.1,1.6-2.5,1.8-4l1,0.1c-0.1,0.6-0.3,1.1-0.5,1.7h3.8
			c0,1.6,0,7.6-0.4,8.7c-0.2,0.6-0.8,0.9-1.4,0.9h-1.9l-0.2-1.1l1.9,0c0.3,0,0.6,0,0.7-0.5c0.3-2.4,0.4-4.7,0.3-7.1H281
			c-0.3,0.7-0.7,1.4-1.3,2L279.1,238.2z M281.8,242.2c-0.4-1-0.8-2-1.4-3l0.9-0.4c0.6,0.9,1.1,1.9,1.4,2.9L281.8,242.2z"/>
		<path id="パス_207" d="M301,245c-1.8-0.8-3.4-1.9-4.6-3.4v4.1h-1v-4c-1.3,1.5-2.9,2.6-4.7,3.4l-0.6-1c1.7-0.6,3.2-1.6,4.5-2.8
			h-3.4v-3.7h4.2v-1h-5.1v-1h5.1v-1.2h1v1.2h5.1v1h-5.1v1h4.2v3.7h-3.4c1.3,1.2,2.8,2.1,4.4,2.7L301,245z M295.4,238.4h-3.2v2h3.2
			V238.4z M299.6,238.4h-3.2v2h3.2V238.4z"/>
		<path id="パス_208" d="M310.3,243.4c0,1-0.8,1.8-1.8,1.8c-1,0-1.8-0.8-1.8-1.8c0-1,0.8-1.8,1.8-1.8
			C309.5,241.6,310.3,242.4,310.3,243.4z M307.3,243.4c0,0.7,0.5,1.2,1.2,1.2s1.2-0.5,1.2-1.2s-0.5-1.2-1.2-1.2
			c-0.3,0-0.6,0.1-0.8,0.4C307.4,242.8,307.3,243.1,307.3,243.4z"/>
	</g>
</g>
</svg>
