<svg xmlns="http://www.w3.org/2000/svg" xmlns:xlink="http://www.w3.org/1999/xlink" viewBox="0 0 345.328 57.094">
  <defs>
    <style>
      .cls-1 {
        fill: none;
      }

      .cls-2 {
        fill: #008a45;
      }

      .cls-3 {
        clip-path: url(#clip-path);
      }

      .cls-4 {
        fill: url(#radial-gradient);
      }
    </style>
    <clipPath id="clip-path">
      <path id="パス_193" data-name="パス 193" class="cls-1" d="M75.092,6.1a5.4,5.4,0,1,1-5.4-5.413,5.4,5.4,0,0,1,5.4,5.413Z" transform="translate(0.205 -0.191)"/>
    </clipPath>
    <radialGradient id="radial-gradient" cx="0.599" cy="0.602" r="0.5" gradientTransform="matrix(1.001, 0, 0, -1, 0, 1.203)" gradientUnits="objectBoundingBox">
      <stop offset="0" stop-color="#99d69d"/>
      <stop offset="0.107" stop-color="#99d69d"/>
      <stop offset="0.461" stop-color="#33a55a"/>
      <stop offset="0.994" stop-color="#00532a"/>
      <stop offset="1" stop-color="#00532a"/>
    </radialGradient>
  </defs>
  <g id="グループ化_47" data-name="グループ化 47" transform="translate(0 0)">
    <g id="グループ化_45" data-name="グループ化 45" transform="translate(0 0)">
      <g id="グループ化_40" data-name="グループ化 40">
        <path id="パス_179" data-name="パス 179" d="M82.105,20.7A1.306,1.306,0,0,0,80.8,22V48.077a1.308,1.308,0,0,0,1.306,1.306h23.186a1.31,1.31,0,0,0,1.307-1.306V21.994a1.308,1.308,0,0,0-1.307-1.3Zm20.512,25.266H84.723v-9.52h17.895Zm0-12.949H84.723v-8.96h17.895Z"/>
        <path id="パス_180" data-name="パス 180" d="M132.083,34.877,137,48.527h4.3l-5.162-13.8a7.37,7.37,0,0,1-.52-2.5v-6.2h5.346V22.655H127.693v-3.33H123.54v3.33H110.258v3.371H115.5V32.22a7.7,7.7,0,0,1-.508,2.5l-5.167,13.8h4.294l4.918-13.65a7.634,7.634,0,0,0,.5-2.5V26.026h4V40.848h-5.8v3.385h5.8v5.422h4.152V44.232h5.789V40.848h-5.789V26.026h3.889v6.347a8,8,0,0,0,.505,2.5Z"/>
        <path id="パス_181" data-name="パス 181" d="M172.652,24.645H160.593V23.14H171.07V20.32H146.365v2.82h10.48v1.506H144.763a1.3,1.3,0,0,0-1.3,1.3V32.5h3.863V27.4h2.467v3.667a1.318,1.318,0,0,0,1.314,1.307h15.225a1.313,1.313,0,0,0,1.3-1.307V27.4h2.545v5.1h3.791V25.948a1.315,1.315,0,0,0-1.316-1.3ZM153.414,27.4h3.432v2.188h-3.432Zm10.73,2.188h-3.551V27.4h3.551Z"/>
        <path id="パス_182" data-name="パス 182" d="M171.576,45.107a1.308,1.308,0,0,0,1.3-1.3V34.946a1.312,1.312,0,0,0-1.3-1.309H145.863a1.314,1.314,0,0,0-1.309,1.309v8.861a1.311,1.311,0,0,0,1.309,1.3h10.951v3.236a1.313,1.313,0,0,0,1.3,1.311h14.754V46.688H160.587V45.107Zm-10.982-8.9h8.42V38h-8.42Zm0,4.49h8.42v1.775h-8.42Zm-12.176-4.49h8.41V38h-8.41Zm0,6.266V40.7h8.41v1.773h-8.41Z"/>
        <path id="パス_183" data-name="パス 183" d="M207.384,34H194.523V32.19l9.312-2.807a1.965,1.965,0,0,0,1.213-1.759V22.071a1.229,1.229,0,0,0-1.291-1.31H179.025v3.5h21.838V26.63l-6.34,1.884h-4.148V34h-13.7v3.377h13.7V46.4l-9.453-.006.746,3.258h11.545a1.312,1.312,0,0,0,1.31-1.311V37.381h12.861Z"/>
        <path id="パス_184" data-name="パス 184" d="M236.126,37.993h2.67a1.316,1.316,0,0,0,1.307-1.308v-9.52a1.321,1.321,0,0,0-1.307-1.313H227.789V24.231h13.506V21.243H227.789V19.582h-3.744v1.661H210.589v2.988h13.455v1.621H213.083a1.324,1.324,0,0,0-1.311,1.313v9.52a1.32,1.32,0,0,0,1.311,1.308H232.32v1.746H210.769v2.989h4.041l1.127,5.132h3.832l-1.133-5.132H232.32v3.614H221.382l.58,3.341h12.861a1.307,1.307,0,0,0,1.3-1.307V42.728h5.348V39.739h-5.348ZM224.05,35.152h-8.406V33.37h8.406Zm0-4.608h-8.406V28.757h8.406Zm3.772-1.787h8.41v1.787h-8.41Zm0,4.613h8.41v1.782h-8.41Z"/>
        <path id="パス_185" data-name="パス 185" d="M249.074,49.656V35.115h8.477a1.312,1.312,0,0,0,1.311-1.309v-11.9a1.311,1.311,0,0,0-1.311-1.3H246.583a1.309,1.309,0,0,0-1.316,1.3v27.75Zm6.018-17.428h-6.018V29.5h6.018Zm0-5.833h-6.018V23.6h6.018Z"/>
        <path id="パス_186" data-name="パス 186" d="M264.845,49.656h8.6a1.3,1.3,0,0,0,1.307-1.307V21.906a1.3,1.3,0,0,0-1.307-1.3H262.468a1.313,1.313,0,0,0-1.312,1.3v11.9a1.313,1.313,0,0,0,1.312,1.309h8.49v11.1h-6.8Zm6.113-17.428h-6.025V29.5h6.025Zm0-5.833h-6.025V23.6h6.025Z"/>
        <path id="パス_187" data-name="パス 187" d="M309.509,38.653H296.4V37.519l5.461-1.478a1.362,1.362,0,0,0,.861-1.211V30.455a.919.919,0,0,0-.914-.91H285.675V32.56h12.783v1.492l-2.512.614h-3.588v3.987h-13.7v3h13.7v4.385h-7.141l1.262,3.581h8.6a1.323,1.323,0,0,0,1.318-1.311v-6.65h13.113Z"/>
        <path id="パス_188" data-name="パス 188" d="M308.078,24.458H303.57l1.8-4.343h-4.139l-1.807,4.343h-3.18l-1.8-4.343h-4.156l1.81,4.343h-3.7l-1.8-4.343h-4.148l1.807,4.343h-3.883a1.307,1.307,0,0,0-1.309,1.311V36.1h4.074V27.5h22.211v8.078h4.035V25.769a1.313,1.313,0,0,0-1.3-1.311Z"/>
        <path id="パス_189" data-name="パス 189" d="M329.365,42.789l-5.072-11.521a8.219,8.219,0,0,1-1.035-3.564V27.11h3.3V23.878h-3.875v-3.9h-3.91v3.9h-5.309v3.231H317.5v1.038a21.319,21.319,0,0,1-1.3,5.678c-.51,1.445-4.754,14.626-4.754,14.626h3.918l3.412-12.972V49.632h3.91V35.215l2.648,7.574Z"/>
        <path id="パス_190" data-name="パス 190" d="M342.726,29.7a4.411,4.411,0,0,1-.809-2.053V27.11h1.842V23.878H337.8v-3.9h-3.99v3.9h-5.949v3.231h1.926v.537a4.879,4.879,0,0,1-.887,2.078l-2.1,3.328h2.9V35.71a4.108,4.108,0,0,0,.908,2.436l3.074,3.552-6.713,7.934h4.875l4.188-5.2,4.275,5.2h5.021l-6.939-7.963,3.049-3.449a4.463,4.463,0,0,0,.781-2.621l.014-2.546h2.42Zm-9.186,6.077V32.6h-2.006l1.4-2.253a5.364,5.364,0,0,0,.652-2.7V27.11h4.539v.537a5.366,5.366,0,0,0,.533,2.5l1.4,2.46h-1.715v3.484L336.048,38.9Z"/>
      </g>
      <g id="グループ化_44" data-name="グループ化 44">
        <path id="パス_191" data-name="パス 191" class="cls-2" d="M62.78,13.343c-2.764-2.783-8.4-.97-12.169.843A21.416,21.416,0,0,0,22.917,45.5,207.967,207.967,0,0,1,0,56.952l.054.142a143.142,143.142,0,0,0,25.461-8.62A21.413,21.413,0,0,0,59.951,24.561c3.889-5.383,4.43-9.608,2.829-11.219M26.455,27.769A17.252,17.252,0,0,1,46.83,14.589c1.471.331,4.539,1.475,2.7,6.241-1.73,4.747-7.3,12.07-20.239,20.683A17.224,17.224,0,0,1,26.455,27.77m33.7,7.389a17.254,17.254,0,0,1-27.459,9.9,130.2,130.2,0,0,0,11.965-6.8c6.97-4.521,11.737-9.03,14.756-12.967a17.184,17.184,0,0,1,.738,9.86"/>
        <g id="グループ化_43" data-name="グループ化 43">
          <g id="グループ化_42" data-name="グループ化 42" class="cls-3">
            <g id="グループ化_41" data-name="グループ化 41">
              <rect id="長方形_106" data-name="長方形 106" class="cls-4" width="10.803" height="10.811" transform="translate(64.497 0.496)"/>
              <path id="パス_192" data-name="パス 192" class="cls-1" d="M64.289,6.1a5.4,5.4,0,1,0,1.577-3.827A5.4,5.4,0,0,0,64.289,6.1" transform="translate(0.208 -0.191)"/>
            </g>
          </g>
          <path id="パス_194" data-name="パス 194" class="cls-2" d="M62.775,13.343c-2.759-2.785-8.4-.97-12.164.843A21.416,21.416,0,0,0,22.917,45.5,207.976,207.976,0,0,1,0,56.952l.054.142a142.83,142.83,0,0,0,25.461-8.62A21.413,21.413,0,0,0,59.951,24.561C63.84,19.188,64.381,14.953,62.775,13.343ZM26.455,27.769A17.249,17.249,0,0,1,46.83,14.589c1.471.331,4.539,1.475,2.7,6.241-1.73,4.747-7.3,12.07-20.239,20.683a17.224,17.224,0,0,1-2.836-13.744Zm33.7,7.389A17.254,17.254,0,0,1,32.7,45.064a130.635,130.635,0,0,0,11.965-6.8c6.97-4.521,11.737-9.03,14.756-12.967a17.184,17.184,0,0,1,.735,9.861Z"/>
        </g>
      </g>
    </g>
    <g id="グループ化_46" data-name="グループ化 46" transform="translate(0 0)">
      <path id="パス_195" data-name="パス 195" d="M120.9,5V6.16H109.791V5Z"/>
      <path id="パス_196" data-name="パス 196" d="M129.965.085V1.562a11.734,11.734,0,0,0,1.177,5.017,8.872,8.872,0,0,0,4.023,3.821l-.709.977a9.723,9.723,0,0,1-5.019-6.849,9.273,9.273,0,0,1-5.1,6.8l-.685-.94a8.4,8.4,0,0,0,4.275-4.224,14.331,14.331,0,0,0,.961-4.614V.085Z"/>
      <path id="パス_197" data-name="パス 197" d="M143.264,1.221V2.233a5.739,5.739,0,0,0-2.534,4.614A2.609,2.609,0,0,0,143.588,9.7a2.939,2.939,0,0,0,2.342-.892A4,4,0,0,0,146.7,6.4a10.912,10.912,0,0,0-.925-4.322c-.192-.451-.564-1.172-.637-1.33l1.141-.3a5.884,5.884,0,0,0,3.471,3.809l-.35,1.137a4.867,4.867,0,0,1-2.161-1.721,9.137,9.137,0,0,1,.444,2.783c0,3.711-2.414,4.309-3.963,4.309a3.936,3.936,0,0,1-2.822-.853,3.992,3.992,0,0,1-1.188-2.93,6.286,6.286,0,0,1,2.138-4.736l-2.342.06V1.221Z"/>
      <path id="パス_198" data-name="パス 198" d="M158.514.414c-.024.855-.036,1.465-.036,2.332a2.876,2.876,0,0,0,.288,1.5A24.651,24.651,0,0,1,163.2,3.234l.12,1.147a20.8,20.8,0,0,0-5.008,1.11c-.793.306-2.786,1.111-2.786,2.662,0,1.514,1.561,1.623,4.5,1.623a29,29,0,0,0,3.687-.2l.013,1.135a20.551,20.551,0,0,1-2.931.135c-3.23,0-4.035-.171-4.875-.5a2.2,2.2,0,0,1-1.489-2.076c0-1.807,1.705-3,3.374-3.662-.408-.658-.444-.853-.456-4.2Z"/>
      <path id="パス_199" data-name="パス 199" d="M171.421.586a20.9,20.9,0,0,0-.553,3.308A3.816,3.816,0,0,1,174.3,1.5c1.754,0,3.087,1.514,3.087,4.37,0,3.76-2.09,5.066-6.629,5.066l-.2-1.038c3.41.024,5.74-.488,5.74-3.968,0-.6,0-3.454-2.114-3.454-1.681,0-2.7,1.892-2.966,2.417a3.408,3.408,0,0,0-.42,1.514c0,.135.107,1.281.12,1.428L169.848,8a12.715,12.715,0,0,1-.084-1.624,34.326,34.326,0,0,1,.528-5.908Z"/>
      <path id="パス_200" data-name="パス 200" d="M185.267.7a26.845,26.845,0,0,0-.517,5.48,19.191,19.191,0,0,0,.444,4.578l-1.116.135a16.347,16.347,0,0,1-.408-4.48,31.055,31.055,0,0,1,.456-5.822Zm3.086,5.383a2.756,2.756,0,0,0-.576,1.6c0,1.062.733,1.416,2.666,1.416a25.969,25.969,0,0,0,2.678-.122v1.1a21.961,21.961,0,0,1-2.2.1c-1.514,0-4.191,0-4.191-2.4a4.227,4.227,0,0,1,.661-2.112Zm4.54-4.541V2.588H187.08V1.537Z"/>
      <path id="パス_201" data-name="パス 201" d="M200.5,11.01a17.523,17.523,0,0,0-2-2.527l.914-.684a19.173,19.173,0,0,1,2.137,2.454Z"/>
      <path id="パス_202" data-name="パス 202" d="M215.3,1.672V.072h1v1.6h4.359v.965H216.3V4.65h5.057v.965h-4.576a12.175,12.175,0,0,0,4.756,3.894l-.588.952A13.046,13.046,0,0,1,216.3,6.384v5h-1v-5a13.055,13.055,0,0,1-4.623,4.077l-.564-.965a10.363,10.363,0,0,0,4.7-3.881h-4.576V4.65H215.3V2.637h-4.336V1.672Z"/>
      <path id="パス_203" data-name="パス 203" d="M231.455,1.306V.085h.984V1.306h4.7v.952h-4.7V5.394h5.1v.953h-4.455A11.4,11.4,0,0,0,237.722,9.9l-.564.964a13.054,13.054,0,0,1-4.719-4.016v4.529h-.984V6.908a13.387,13.387,0,0,1-4.6,3.955l-.625-.915a12.119,12.119,0,0,0,4.648-3.6h-4.455V5.394h5.031V2.258h-4.588V1.306Zm-2.57,3.857a12.13,12.13,0,0,0-.912-2.21l.936-.391a11.207,11.207,0,0,1,.937,2.246Zm5.164-.415a9.056,9.056,0,0,0,.938-2.137l1,.33a8.171,8.171,0,0,1-1.021,2.2Z"/>
      <path id="パス_204" data-name="パス 204" d="M253.1,9.082c-2.125-1.7-3.916-3.369-4.3-3.76-1.682-1.7-1.777-1.8-2.211-1.8a1.291,1.291,0,0,0-.947.525c-.217.231-.434.5-2.367,2.9l-.828-.964c.408-.415,2.113-2.356,2.486-2.722a2.173,2.173,0,0,1,1.645-.843c.781,0,1.033.231,2.846,1.94a48.883,48.883,0,0,0,4.432,3.675Z"/>
      <path id="パス_205" data-name="パス 205" d="M263.611,9.851c1.887-.171,2.883-.476,3.555-1.159a4.427,4.427,0,0,0,1.045-3.076,3.475,3.475,0,0,0-3.65-3.7c-.023,2.453-.924,7.983-3.578,7.983-1.406,0-2.246-1.709-2.246-3.5A5.3,5.3,0,0,1,264.392.928c3.338,0,5,2.074,5,4.76,0,4.639-3.844,5.066-5.428,5.188Zm-2.125-7.08A4.693,4.693,0,0,0,259.769,6.5c0,.915.3,2.307,1.236,2.307.637,0,1.033-.646,1.274-1.111a14.943,14.943,0,0,0,1.213-5.713,4.3,4.3,0,0,0-2.006.792Z"/>
      <path id="パス_206" data-name="パス 206" d="M278.843,1.635a27.037,27.037,0,0,1-2.307,3.59c.914-.037,1.346-.1,1.693-.135a6.92,6.92,0,0,0-.383-.879l.768-.3a13.848,13.848,0,0,1,.984,2.307l-.877.33c-.047-.184-.084-.293-.2-.684-.672.1-.912.121-1.08.134v5.4h-.961V6.1c-1.178.085-1.478.11-1.971.134l-.047-.939c.336,0,.408,0,1.033-.012.371-.5.527-.721.66-.94a11.042,11.042,0,0,0-1.742-1.685l.5-.744c.109.085.193.158.4.316A14.746,14.746,0,0,0,276.478,0l.877.342a16.551,16.551,0,0,1-1.395,2.465c.049.062.361.379.7.77a26.534,26.534,0,0,0,1.357-2.344Zm-4.42,8.582a9.641,9.641,0,0,0,.59-3.234l.863.146a14.575,14.575,0,0,1-.576,3.43Zm4.047-.3a19.279,19.279,0,0,0-.5-2.809l.793-.17a16.457,16.457,0,0,1,.6,2.807Zm.59-5.934A8.523,8.523,0,0,0,280.884.012l1,.109a13.4,13.4,0,0,1-.478,1.7H285.2c0,1.562-.012,7.58-.443,8.691a1.36,1.36,0,0,1-1.418.879H281.43l-.193-1.074,1.91.012c.289,0,.613-.012.744-.5a56.693,56.693,0,0,0,.324-7.092h-3.17a7.886,7.886,0,0,1-1.26,2Zm2.725,3.98A15.378,15.378,0,0,0,280.4,4.992l.853-.415a12.241,12.241,0,0,1,1.428,2.942Z"/>
      <path id="パス_207" data-name="パス 207" d="M301.009,10.754a12.694,12.694,0,0,1-4.635-3.418v4.077H295.4v-4a13.435,13.435,0,0,1-4.66,3.431l-.564-1a12.647,12.647,0,0,0,4.469-2.832h-3.424V3.283h4.18V2.269H290.31V1.306h5.09V.072h.973V1.306h5.115V2.27h-5.115V3.283h4.166V7.006h-3.373a12.429,12.429,0,0,0,4.418,2.734ZM295.4,4.113h-3.2V6.152h3.2Zm4.154,0h-3.182V6.152h3.182Z"/>
      <path id="パス_208" data-name="パス 208" d="M310.261,9.167a1.789,1.789,0,1,1-1.789-1.819,1.809,1.809,0,0,1,1.789,1.819Zm-2.978,0a1.192,1.192,0,1,0,.342-.852A1.184,1.184,0,0,0,307.283,9.167Z"/>
    </g>
  </g>
</svg>
