<?xml version="1.0" encoding="utf-8"?>
<!-- Generator: Adobe Illustrator 25.0.0, SVG Export Plug-In . SVG Version: 6.00 Build 0)  -->
<svg version="1.1" id="圖層_1" xmlns="http://www.w3.org/2000/svg" xmlns:xlink="http://www.w3.org/1999/xlink" x="0px" y="0px"
	 viewBox="0 0 345.3 290" style="enable-background:new 0 0 345.3 290;" xml:space="preserve">
<style type="text/css">
	.st0{fill:#008A45;}
	.st1{clip-path:url(#SVGID_2_);}
	.st2{fill:url(#長方形_106_1_);}
	.st3{fill:none;}
</style>
<g id="グループ化_47" transform="translate(0 0)">
	<g id="グループ化_45" transform="translate(0 0)">
		<g id="グループ化_40">
			<path id="パス_179" d="M82.1,230.3c-0.7,0-1.3,0.6-1.3,1.3v26.1c0,0.7,0.6,1.3,1.3,1.3h23.2c0.7,0,1.3-0.6,1.3-1.3v-26.1
				c0-0.7-0.6-1.3-1.3-1.3L82.1,230.3z M102.6,255.6H84.7V246h17.9L102.6,255.6z M102.6,242.6H84.7v-9h17.9L102.6,242.6z"/>
			<path id="パス_180" d="M132.1,244.5l4.9,13.7h4.3l-5.2-13.8c-0.3-0.8-0.5-1.6-0.5-2.5v-6.2h5.3v-3.4h-13.3v-3.3h-4.2v3.3h-13.3
				v3.4h5.2v6.2c0,0.9-0.2,1.7-0.5,2.5l-5.2,13.8h4.3l4.9-13.6c0.3-0.8,0.5-1.6,0.5-2.5v-6.3h4v14.8h-5.8v3.4h5.8v5.4h4.2v-5.4h5.8
				v-3.4h-5.8v-14.8h3.9v6.3C131.6,242.8,131.8,243.7,132.1,244.5L132.1,244.5z"/>
			<path id="パス_181" d="M172.7,234.2h-12.1v-1.5h10.5v-2.8h-24.7v2.8h10.5v1.5h-12.1c-0.7,0-1.3,0.6-1.3,1.3l0,0v6.6h3.9V237
				h2.5v3.7c0,0.7,0.6,1.3,1.3,1.3h15.2c0.7,0,1.3-0.6,1.3-1.3V237h2.5v5.1h3.8v-6.6C174,234.8,173.4,234.2,172.7,234.2L172.7,234.2
				z M153.4,237h3.4v2.2h-3.4V237z M164.1,239.2h-3.6V237h3.6V239.2z"/>
			<path id="パス_182" d="M171.6,254.7c0.7,0,1.3-0.6,1.3-1.3v-8.9c0-0.7-0.6-1.3-1.3-1.3h-25.7c-0.7,0-1.3,0.6-1.3,1.3v8.9
				c0,0.7,0.6,1.3,1.3,1.3h11v3.2c0,0.7,0.6,1.3,1.3,1.3h14.8v-3h-12.3v-1.6H171.6z M160.6,245.8h8.4v1.8h-8.4V245.8z M160.6,250.3
				h8.4v1.8h-8.4V250.3z M148.4,245.8h8.4v1.8h-8.4V245.8z M148.4,252.1v-1.8h8.4v1.8H148.4z"/>
			<path id="パス_183" d="M207.4,243.6h-12.9v-1.8l9.3-2.8c0.7-0.3,1.2-1,1.2-1.8v-5.6c0-0.7-0.5-1.3-1.1-1.3c0,0-0.1,0-0.1,0H179
				v3.5h21.8v2.4l-6.3,1.9h-4.1v5.5h-13.7v3.4h13.7v9l-9.5,0l0.7,3.3h11.5c0.7,0,1.3-0.6,1.3-1.3v-11h12.9V243.6z"/>
			<path id="パス_184" d="M236.1,247.6h2.7c0.7,0,1.3-0.6,1.3-1.3v-9.5c0-0.7-0.6-1.3-1.3-1.3h-11v-1.6h13.5v-3h-13.5v-1.7H224
				v1.7h-13.5v3H224v1.6h-11c-0.7,0-1.3,0.6-1.3,1.3v9.5c0,0.7,0.6,1.3,1.3,1.3h19.2v1.7h-21.6v3h4l1.1,5.1h3.8l-1.1-5.1h13.7v3.6
				h-10.9l0.6,3.3h12.9c0.7,0,1.3-0.6,1.3-1.3v-5.6h5.3v-3h-5.3L236.1,247.6z M224.1,244.7h-8.4V243h8.4V244.7z M224.1,240.1h-8.4
				v-1.8h8.4V240.1z M227.8,238.3h8.4v1.8h-8.4V238.3z M227.8,243h8.4v1.8h-8.4V243z"/>
			<path id="パス_185" d="M249.1,259.2v-14.5h8.5c0.7,0,1.3-0.6,1.3-1.3v-11.9c0-0.7-0.6-1.3-1.3-1.3h-11c-0.7,0-1.3,0.6-1.3,1.3
				v27.8H249.1z M255.1,241.8h-6v-2.7h6V241.8z M255.1,236h-6v-2.8h6V236z"/>
			<path id="パス_186" d="M264.8,259.2h8.6c0.7,0,1.3-0.6,1.3-1.3c0,0,0,0,0,0v-26.4c0-0.7-0.6-1.3-1.3-1.3c0,0,0,0,0,0h-11
				c-0.7,0-1.3,0.6-1.3,1.3v11.9c0,0.7,0.6,1.3,1.3,1.3h8.5v11.1h-6.8L264.8,259.2z M271,241.8h-6v-2.7h6V241.8z M271,236h-6v-2.8h6
				V236z"/>
			<path id="パス_187" d="M309.5,248.2h-13.1v-1.1l5.5-1.5c0.5-0.2,0.8-0.7,0.9-1.2V240c0-0.5-0.4-0.9-0.9-0.9h-16.1v3h12.8v1.5
				l-2.5,0.6h-3.6v4h-13.7v3h13.7v4.4h-7.1l1.3,3.6h8.6c0.7,0,1.3-0.6,1.3-1.3v-6.7h13.1L309.5,248.2z"/>
			<path id="パス_188" d="M308.1,234h-4.5l1.8-4.3h-4.1l-1.8,4.3h-3.2l-1.8-4.3h-4.2l1.8,4.3h-3.7l-1.8-4.3h-4.1l1.8,4.3h-3.9
				c-0.7,0-1.3,0.6-1.3,1.3c0,0,0,0,0,0v10.3h4.1v-8.6h22.2v8.1h4v-9.8C309.4,234.6,308.8,234.1,308.1,234L308.1,234z"/>
			<path id="パス_189" d="M329.4,252.4l-5.1-11.5c-0.6-1.1-1-2.3-1-3.6v-0.6h3.3v-3.2h-3.9v-3.9h-3.9v3.9h-5.3v3.2h4v1
				c-0.2,1.9-0.6,3.9-1.3,5.7c-0.5,1.4-4.8,14.6-4.8,14.6h3.9l3.4-13v14.2h3.9v-14.4l2.6,7.6H329.4z"/>
			<path id="パス_190" d="M342.7,239.3c-0.4-0.6-0.7-1.3-0.8-2.1v-0.5h1.8v-3.2h-6v-3.9h-4v3.9h-5.9v3.2h1.9v0.5
				c-0.1,0.8-0.4,1.5-0.9,2.1l-2.1,3.3h2.9v2.7c0,0.9,0.3,1.7,0.9,2.4l3.1,3.6l-6.7,7.9h4.9l4.2-5.2l4.3,5.2h5l-6.9-8l3-3.4
				c0.5-0.8,0.8-1.7,0.8-2.6l0-2.5h2.4L342.7,239.3z M333.5,245.4v-3.2h-2l1.4-2.3c0.5-0.8,0.7-1.8,0.7-2.7v-0.5h4.5v0.5
				c0,0.9,0.2,1.7,0.5,2.5l1.4,2.5h-1.7v3.5l-2.3,2.8L333.5,245.4z"/>
		</g>
		<g id="グループ化_44">
			<path id="パス_191" class="st0" d="M62.8,222.9c-2.8-2.8-8.4-1-12.2,0.8c-10.4-5.7-23.4-2-29.1,8.4c-4,7.3-3.5,16.2,1.4,22.9
				c-7.4,4.3-15,8.1-22.9,11.5l0.1,0.1c8.7-2.1,17.3-5,25.5-8.6c8.6,8.1,22.1,7.8,30.3-0.8c5.9-6.2,7.5-15.3,4.2-23.1
				C63.8,228.8,64.4,224.5,62.8,222.9 M26.5,237.4c2-9.2,11.1-15.1,20.4-13.2c1.5,0.3,4.5,1.5,2.7,6.2c-1.7,4.7-7.3,12.1-20.2,20.7
				C26.4,247.1,25.4,242.1,26.5,237.4 M60.2,244.7c-2,9.3-11.3,15.2-20.6,13.1c-2.5-0.6-4.9-1.7-6.9-3.2c4.1-2.1,8.1-4.3,12-6.8
				c7-4.5,11.7-9,14.8-13C60.6,238,60.9,241.5,60.2,244.7"/>
			<g id="グループ化_43">
				<g>
					<defs>
						<path id="SVGID_1_" d="M75.3,215.5c0,3-2.4,5.4-5.4,5.4c-3,0-5.4-2.4-5.4-5.4c0-3,2.4-5.4,5.4-5.4
							C72.9,210.1,75.3,212.5,75.3,215.5C75.3,215.5,75.3,215.5,75.3,215.5z"/>
					</defs>
					<clipPath id="SVGID_2_">
						<use xlink:href="#SVGID_1_"  style="overflow:visible;"/>
					</clipPath>
					<g id="グループ化_42" class="st1">
						<g id="グループ化_41">
							
								<radialGradient id="長方形_106_1_" cx="-461.3315" cy="655.7285" r="0.5" gradientTransform="matrix(10.8138 0 0 10.811 5059.7231 -6872.5005)" gradientUnits="userSpaceOnUse">
								<stop  offset="0" style="stop-color:#99D69D"/>
								<stop  offset="0.107" style="stop-color:#99D69D"/>
								<stop  offset="0.461" style="stop-color:#33A55A"/>
								<stop  offset="0.994" style="stop-color:#00532A"/>
								<stop  offset="1" style="stop-color:#00532A"/>
							</radialGradient>
							<rect id="長方形_106" x="64.5" y="210.1" class="st2" width="10.8" height="10.8"/>
							<path id="パス_192" class="st3" d="M64.5,215.5c0,3,2.4,5.4,5.4,5.4c3,0,5.4-2.4,5.4-5.4s-2.4-5.4-5.4-5.4
								c-1.4,0-2.8,0.6-3.8,1.6C65.1,212.7,64.5,214.1,64.5,215.5"/>
						</g>
					</g>
				</g>
				<path id="パス_194" class="st0" d="M62.8,222.9c-2.8-2.8-8.4-1-12.2,0.8c-10.4-5.7-23.4-2-29.1,8.4c-4,7.3-3.5,16.2,1.4,22.9
					c-7.4,4.3-15,8.1-22.9,11.5l0.1,0.1c8.7-2.1,17.3-5,25.5-8.6c8.6,8.1,22.1,7.8,30.3-0.8c5.9-6.2,7.5-15.3,4.2-23.1
					C63.8,228.8,64.4,224.5,62.8,222.9z M26.5,237.4c2-9.2,11.1-15.1,20.4-13.2c1.5,0.3,4.5,1.5,2.7,6.2
					c-1.7,4.7-7.3,12.1-20.2,20.7C26.4,247.1,25.4,242.1,26.5,237.4z M60.2,244.7c-2,9.3-11.2,15.2-20.6,13.1
					c-2.5-0.6-4.9-1.7-6.9-3.2c4.1-2.1,8.1-4.3,12-6.8c7-4.5,11.7-9,14.8-13C60.6,238,60.9,241.5,60.2,244.7L60.2,244.7z"/>
			</g>
		</g>
	</g>
	<g id="グループ化_46" transform="translate(0 0)">
		<path id="パス_195" d="M120.9,214.6v1.2h-11.1v-1.2H120.9z"/>
		<path id="パス_196" d="M130,209.7v1.5c0,1.7,0.4,3.5,1.2,5c0.9,1.7,2.3,3,4,3.8l-0.7,1c-2.6-1.4-4.5-3.9-5-6.8
			c-0.5,3-2.4,5.5-5.1,6.8l-0.7-0.9c1.9-0.8,3.4-2.3,4.3-4.2c0.6-1.5,0.9-3,1-4.6v-1.5H130z"/>
		<path id="パス_197" d="M143.3,210.8v1c-1.5,1-2.5,2.8-2.5,4.6c-0.1,1.4,0.9,2.7,2.3,2.9c0.2,0,0.3,0,0.5,0
			c0.9,0.1,1.7-0.3,2.3-0.9c0.5-0.7,0.8-1.5,0.8-2.4c0-1.5-0.3-3-0.9-4.3c-0.2-0.5-0.6-1.2-0.6-1.3l1.1-0.3c0.5,1.7,1.8,3.1,3.5,3.8
			l-0.4,1.1c-0.9-0.4-1.6-1-2.2-1.7c0.3,0.9,0.4,1.8,0.4,2.8c0,3.7-2.4,4.3-4,4.3c-1,0.1-2-0.2-2.8-0.9c-0.8-0.8-1.2-1.8-1.2-2.9
			c0-1.8,0.8-3.5,2.1-4.7l-2.3,0.1v-1.1H143.3z"/>
		<path id="パス_198" d="M158.5,210c0,0.9,0,1.5,0,2.3c0,0.5,0.1,1,0.3,1.5c1.4-0.5,2.9-0.8,4.4-1l0.1,1.1c-1.7,0.2-3.4,0.5-5,1.1
			c-0.8,0.3-2.8,1.1-2.8,2.7c0,1.5,1.6,1.6,4.5,1.6c1.2,0,2.5-0.1,3.7-0.2l0,1.1c-1,0.1-2,0.2-2.9,0.1c-3.2,0-4-0.2-4.9-0.5
			c-0.9-0.3-1.5-1.1-1.5-2.1c0-1.8,1.7-3,3.4-3.7c-0.4-0.7-0.4-0.9-0.5-4.2L158.5,210z"/>
		<path id="パス_199" d="M171.4,210.2c-0.3,1.1-0.5,2.2-0.6,3.3c0.6-1.4,1.9-2.4,3.4-2.4c1.8,0,3.1,1.5,3.1,4.4
			c0,3.8-2.1,5.1-6.6,5.1l-0.2-1c3.4,0,5.7-0.5,5.7-4c0-0.6,0-3.5-2.1-3.5c-1.7,0-2.7,1.9-3,2.4c-0.3,0.5-0.4,1-0.4,1.5
			c0,0.1,0.1,1.3,0.1,1.4l-1.1,0.2c-0.1-0.5-0.1-1.1-0.1-1.6c0-2,0.2-4,0.5-5.9L171.4,210.2z"/>
		<path id="パス_200" d="M185.3,210.3c-0.4,1.8-0.5,3.6-0.5,5.5c0,1.5,0.1,3.1,0.4,4.6l-1.1,0.1c-0.3-1.5-0.5-3-0.4-4.5
			c0-2,0.1-3.9,0.5-5.8L185.3,210.3z M188.4,215.7c-0.4,0.5-0.6,1-0.6,1.6c0,1.1,0.7,1.4,2.7,1.4c0.9,0,1.8,0,2.7-0.1v1.1
			c-0.7,0.1-1.5,0.1-2.2,0.1c-1.5,0-4.2,0-4.2-2.4c0-0.8,0.3-1.5,0.7-2.1L188.4,215.7z M192.9,211.1v1h-5.8v-1.1L192.9,211.1z"/>
		<path id="パス_201" d="M200.5,220.6c-0.6-0.9-1.3-1.7-2-2.5l0.9-0.7c0.8,0.8,1.5,1.6,2.1,2.5L200.5,220.6z"/>
		<path id="パス_202" d="M215.3,211.3v-1.6h1v1.6h4.4v1h-4.4v2h5.1v1h-4.6c1.2,1.7,2.9,3,4.8,3.9l-0.6,1c-1.9-1-3.4-2.4-4.6-4.1v5
			h-1v-5c-1.2,1.7-2.8,3.1-4.6,4.1l-0.6-1c1.9-0.8,3.6-2.1,4.7-3.9h-4.6v-1h5.1v-2H211v-1H215.3z"/>
		<path id="パス_203" d="M231.5,210.9v-1.2h1v1.2h4.7v1h-4.7v3.1h5.1v1h-4.5c1.2,1.6,2.8,2.8,4.6,3.6l-0.6,1
			c-1.9-0.9-3.5-2.3-4.7-4v4.5h-1v-4.5c-1.2,1.7-2.8,3-4.6,4l-0.6-0.9c1.8-0.8,3.4-2,4.6-3.6h-4.5v-1h5v-3.1h-4.6v-1H231.5z
			 M228.9,214.7c-0.2-0.8-0.5-1.5-0.9-2.2l0.9-0.4c0.4,0.7,0.7,1.5,0.9,2.2L228.9,214.7z M234,214.3c0.4-0.7,0.7-1.4,0.9-2.1l1,0.3
			c-0.2,0.8-0.6,1.5-1,2.2L234,214.3z"/>
		<path id="パス_204" d="M253.1,218.7c-2.1-1.7-3.9-3.4-4.3-3.8c-1.7-1.7-1.8-1.8-2.2-1.8c-0.4,0-0.7,0.2-0.9,0.5
			c-0.2,0.2-0.4,0.5-2.4,2.9l-0.8-1c0.4-0.4,2.1-2.4,2.5-2.7c0.4-0.5,1-0.8,1.6-0.8c0.8,0,1,0.2,2.8,1.9c1.4,1.3,2.9,2.5,4.4,3.7
			L253.1,218.7z"/>
		<path id="パス_205" d="M263.6,219.4c1.9-0.2,2.9-0.5,3.6-1.2c0.7-0.9,1.1-2,1-3.1c0.1-1.9-1.3-3.6-3.2-3.7c-0.1,0-0.3,0-0.4,0
			c0,2.5-0.9,8-3.6,8c-1.4,0-2.2-1.7-2.2-3.5c-0.1-2.9,2.2-5.4,5.1-5.5c0.2,0,0.4,0,0.5,0c3.3,0,5,2.1,5,4.8c0,4.6-3.8,5.1-5.4,5.2
			L263.6,219.4z M261.5,212.4c-1.1,0.9-1.7,2.3-1.7,3.7c0,0.9,0.3,2.3,1.2,2.3c0.6,0,1-0.6,1.3-1.1c0.8-1.8,1.2-3.7,1.2-5.7
			C262.8,211.7,262.1,211.9,261.5,212.4L261.5,212.4z"/>
		<path id="パス_206" d="M278.8,211.2c-0.7,1.3-1.4,2.5-2.3,3.6c0.9,0,1.3-0.1,1.7-0.1c-0.1-0.3-0.2-0.6-0.4-0.9l0.8-0.3
			c0.4,0.7,0.7,1.5,1,2.3l-0.9,0.3c0-0.2-0.1-0.3-0.2-0.7c-0.7,0.1-0.9,0.1-1.1,0.1v5.4h-1v-5.3c-1.2,0.1-1.5,0.1-2,0.1l0-0.9
			c0.3,0,0.4,0,1,0c0.4-0.5,0.5-0.7,0.7-0.9c-0.5-0.6-1.1-1.2-1.7-1.7l0.5-0.7c0.1,0.1,0.2,0.2,0.4,0.3c0.5-0.7,0.8-1.5,1.2-2.2
			l0.9,0.3c-0.4,0.9-0.9,1.7-1.4,2.5c0,0.1,0.4,0.4,0.7,0.8c0.5-0.8,0.9-1.5,1.4-2.3L278.8,211.2z M274.4,219.8
			c0.4-1,0.6-2.1,0.6-3.2l0.9,0.1c-0.1,1.2-0.2,2.3-0.6,3.4L274.4,219.8z M278.5,219.5c-0.1-0.9-0.3-1.9-0.5-2.8l0.8-0.2
			c0.3,0.9,0.5,1.9,0.6,2.8L278.5,219.5z M279.1,213.6c0.9-1.1,1.6-2.5,1.8-4l1,0.1c-0.1,0.6-0.3,1.1-0.5,1.7h3.8
			c0,1.6,0,7.6-0.4,8.7c-0.2,0.6-0.8,0.9-1.4,0.9h-1.9l-0.2-1.1l1.9,0c0.3,0,0.6,0,0.7-0.5c0.3-2.4,0.4-4.7,0.3-7.1H281
			c-0.3,0.7-0.7,1.4-1.3,2L279.1,213.6z M281.8,217.5c-0.4-1-0.8-2-1.4-3l0.9-0.4c0.6,0.9,1.1,1.9,1.4,2.9L281.8,217.5z"/>
		<path id="パス_207" d="M301,220.3c-1.8-0.8-3.4-1.9-4.6-3.4v4.1h-1v-4c-1.3,1.5-2.9,2.6-4.7,3.4l-0.6-1c1.7-0.6,3.2-1.6,4.5-2.8
			h-3.4v-3.7h4.2v-1h-5.1v-1h5.1v-1.2h1v1.2h5.1v1h-5.1v1h4.2v3.7h-3.4c1.3,1.2,2.8,2.1,4.4,2.7L301,220.3z M295.4,213.7h-3.2v2h3.2
			V213.7z M299.6,213.7h-3.2v2h3.2V213.7z"/>
		<path id="パス_208" d="M310.3,218.8c0,1-0.8,1.8-1.8,1.8c-1,0-1.8-0.8-1.8-1.8c0-1,0.8-1.8,1.8-1.8
			C309.5,216.9,310.3,217.8,310.3,218.8z M307.3,218.8c0,0.7,0.5,1.2,1.2,1.2s1.2-0.5,1.2-1.2s-0.5-1.2-1.2-1.2
			c-0.3,0-0.6,0.1-0.8,0.4C307.4,218.1,307.3,218.4,307.3,218.8z"/>
	</g>
</g>
</svg>
