<?xml version="1.0" encoding="UTF-8"?>
<svg id="Layer_1" data-name="Layer 1" xmlns="http://www.w3.org/2000/svg" viewBox="0 0 242.92 276.78">
  <defs>
    <style>
      .cls-1 {
        fill: #fff;
      }

      .cls-2 {
        fill: #ffd42e;
      }
    </style>
  </defs>
  <g>
    <path d="m74.41,119.6h-7.86c-5.02,0-9.1-4.1-9.1-9.14,0-.82.67-1.49,1.49-1.49s1.49.67,1.49,1.49c0,3.39,2.75,6.16,6.12,6.16h7.86c.82,0,1.49.67,1.49,1.49s-.67,1.49-1.49,1.49Z"/>
    <path d="m160.28,137.4c-.47,0-.93-.23-1.22-.63l-12.19-17.17h-48.86c-.82,0-1.49-.67-1.49-1.49s.67-1.49,1.49-1.49h49.64c.48,0,.94.23,1.22.63l9.97,14.04.12-13.2c0-.82.67-1.48,1.49-1.48h37.31c3.38,0,6.12-2.76,6.12-6.16v-54.53c0-3.4-2.75-6.16-6.12-6.16-.82,0-1.49-.67-1.49-1.49s.67-1.49,1.49-1.49c5.02,0,9.1,4.1,9.1,9.14v54.53c0,5.04-4.08,9.14-9.1,9.14h-35.83l-.15,16.32c0,.65-.43,1.22-1.05,1.41-.15.05-.3.07-.45.07Z"/>
  </g>
  <g>
    <path class="cls-1" d="m179.09,33.47H47.89c-4.2,0-7.61,3.42-7.61,7.65v54.53c0,4.22,3.41,7.65,7.61,7.65h37.31l-6.04,31.31,18.84-31.31h81.09c4.2,0,7.61-3.42,7.61-7.65v-54.53c0-4.22-3.41-7.65-7.61-7.65Z"/>
    <path d="m79.16,136.09c-.18,0-.36-.03-.53-.1-.68-.26-1.07-.97-.93-1.68l5.69-29.53h-35.5c-5.02,0-9.1-4.1-9.1-9.14v-54.53c0-5.04,4.08-9.14,9.1-9.14h131.21c5.02,0,9.1,4.1,9.1,9.14v54.53c0,5.04-4.08,9.14-9.1,9.14h-80.25l-18.4,30.58c-.28.46-.77.72-1.28.72Zm-31.27-101.13c-3.38,0-6.12,2.76-6.12,6.16v54.53c0,3.39,2.75,6.16,6.12,6.16h37.31c.44,0,.87.2,1.15.54.28.34.4.8.31,1.23l-4.44,23.05,14.5-24.1c.27-.45.75-.72,1.28-.72h81.09c3.38,0,6.12-2.76,6.12-6.16v-54.53c0-3.39-2.75-6.16-6.12-6.16H47.89Z"/>
  </g>
  <g>
    <path class="cls-1" d="m43.4,167.03c0-11.98,9.71-21.7,21.7-21.7s21.7,9.71,21.7,21.7-9.71,21.7-21.7,21.7-21.7-9.71-21.7-21.7Z"/>
    <path d="m65.09,190.22c-12.79,0-23.19-10.4-23.19-23.19s10.4-23.19,23.19-23.19,23.19,10.4,23.19,23.19-10.4,23.19-23.19,23.19Zm0-43.39c-11.14,0-20.2,9.06-20.2,20.21s9.06,20.21,20.2,20.21,20.21-9.06,20.21-20.21-9.06-20.21-20.21-20.21Z"/>
  </g>
  <g>
    <path class="cls-2" d="m103.88,243.31v-12.5c0-18.04-17.37-32.66-38.79-32.66h0c-21.42,0-38.79,14.62-38.79,32.66v12.5h77.58Z"/>
    <path d="m103.88,244.8H26.31c-.82,0-1.49-.67-1.49-1.49v-12.5c0-18.83,18.07-34.15,40.28-34.15s40.28,15.32,40.28,34.15v12.5c0,.82-.67,1.49-1.49,1.49Zm-76.08-2.98h74.59v-11.01c0-17.19-16.73-31.17-37.3-31.17s-37.3,13.98-37.3,31.17v11.01Z"/>
  </g>
  <g>
    <g>
      <path class="cls-1" d="m156.13,167.03c0-11.98,9.71-21.7,21.7-21.7s21.7,9.71,21.7,21.7-9.71,21.7-21.7,21.7-21.7-9.71-21.7-21.7Z"/>
      <path d="m177.82,190.22c-12.79,0-23.19-10.4-23.19-23.19s10.4-23.19,23.19-23.19,23.19,10.4,23.19,23.19-10.4,23.19-23.19,23.19Zm0-43.39c-11.14,0-20.21,9.06-20.21,20.21s9.06,20.21,20.21,20.21,20.21-9.06,20.21-20.21-9.06-20.21-20.21-20.21Z"/>
    </g>
    <g>
      <path d="m216.61,243.31v-12.5c0-18.04-17.37-32.66-38.79-32.66h0c-21.42,0-38.79,14.62-38.79,32.66v12.5h77.58Z"/>
      <path d="m216.61,244.8h-77.58c-.82,0-1.49-.67-1.49-1.49v-12.5c0-18.83,18.07-34.15,40.28-34.15s40.28,15.32,40.28,34.15v12.5c0,.82-.67,1.49-1.49,1.49Zm-76.08-2.98h74.59v-11.01c0-17.19-16.73-31.17-37.3-31.17s-37.3,13.98-37.3,31.17v11.01Z"/>
    </g>
  </g>
  <path d="m152.41,61.16h-77.83c-.27,0-.5-.22-.5-.5s.22-.5.5-.5h77.83c.28,0,.5.22.5.5s-.22.5-.5.5Z"/>
  <path d="m142.21,73.59h-55.42c-.27,0-.5-.22-.5-.5s.22-.5.5-.5h55.42c.28,0,.5.22.5.5s-.22.5-.5.5Z"/>
</svg>