<svg id="圖層_1" data-name="圖層 1" xmlns="http://www.w3.org/2000/svg" viewBox="0 0 100 100"><defs><style>.cls-1{fill:#70b0b4;}</style></defs><path class="cls-1" d="M23.07,81.18,54.61,50.47c2-1.89,3.7-3.64,5.19-5.25a33.59,33.59,0,0,0,3.72-4.73,17.72,17.72,0,0,0,2.19-4.78,20.24,20.24,0,0,0,.71-5.55,14.24,14.24,0,0,0-1.18-5.91A13.09,13.09,0,0,0,62,19.82,15,15,0,0,0,57.15,17a17.44,17.44,0,0,0-6-1,15.26,15.26,0,0,0-10.51,3.67,16.8,16.8,0,0,0-5.32,9.68l-10.74-.94a26,26,0,0,1,3.13-9,21.52,21.52,0,0,1,5.78-6.55,25.61,25.61,0,0,1,7.86-4A33.34,33.34,0,0,1,60.63,9a24.44,24.44,0,0,1,8.09,4.31,20.68,20.68,0,0,1,5.55,7.08,22.18,22.18,0,0,1,2.07,9.81,28,28,0,0,1-1.36,9,30.51,30.51,0,0,1-3.66,7.39,49.74,49.74,0,0,1-5.2,6.37q-2.9,3-6.08,6L34.29,83.07v.24H76.93v9.21H23.07Z"/></svg>