<?xml version="1.0" encoding="utf-8"?>
<!-- Generator: Adobe Illustrator 25.0.0, SVG Export Plug-In . SVG Version: 6.00 Build 0)  -->
<svg version="1.1" id="圖層_1" xmlns="http://www.w3.org/2000/svg" xmlns:xlink="http://www.w3.org/1999/xlink" x="0px" y="0px"
	 viewBox="0 0 100 100" style="enable-background:new 0 0 100 100;" xml:space="preserve">
<style type="text/css">
	.st0{fill:#34CCD4;}
</style>
<path class="st0" d="M23.1,81.2l31.5-30.7c2-1.9,3.7-3.6,5.2-5.2c1.4-1.5,2.6-3,3.7-4.7c1-1.5,1.7-3.1,2.2-4.8
	c0.5-1.8,0.7-3.7,0.7-5.5c0-2-0.4-4-1.2-5.9c-0.8-1.7-1.9-3.2-3.2-4.4c-1.4-1.2-3.1-2.2-4.8-2.8c-1.9-0.7-4-1-6-1
	c-3.8-0.1-7.6,1.2-10.5,3.7c-2.8,2.5-4.7,5.9-5.3,9.7l-10.7-0.9c0.5-3.2,1.5-6.2,3.1-9c1.5-2.6,3.4-4.8,5.8-6.6c2.4-1.8,5-3.1,7.9-4
	C47.7,7,54.4,7.1,60.6,9c2.9,0.9,5.7,2.4,8.1,4.3c2.3,1.9,4.2,4.3,5.6,7.1c1.4,3.1,2.1,6.4,2.1,9.8c0,3.1-0.4,6.1-1.4,9
	c-0.9,2.6-2.1,5.1-3.7,7.4C69.8,48.9,68,51,66.1,53c-1.9,2-4,4-6.1,6L34.3,83.1v0.2h42.6v9.2H23.1V81.2z"/>
</svg>
