<?xml version="1.0" encoding="UTF-8"?>
<svg id="_レイヤー_1" data-name="レイヤー 1" xmlns="http://www.w3.org/2000/svg" viewBox="0 0 100 100">
  <defs>
    <style>
      .cls-1 {
        fill: #fff;
      }

      .cls-2 {
        fill: #73b6ba;
      }
    </style>
  </defs>
  <g>
    <circle class="cls-1" cx="50" cy="50" r="47"/>
    <path class="cls-2" d="m50,98.5C23.26,98.5,1.5,76.74,1.5,50S23.26,1.5,50,1.5s48.5,21.76,48.5,48.5-21.76,48.5-48.5,48.5Zm0-94C24.91,4.5,4.5,24.91,4.5,50s20.41,45.5,45.5,45.5,45.5-20.41,45.5-45.5S75.09,4.5,50,4.5Z"/>
  </g>
  <g>
    <path d="m63,65.94c-.26,0-.51-.1-.71-.29l-12.61-12.61-11.98,11.98c-.39.39-1.02.39-1.41,0s-.39-1.02,0-1.41l13.39-13.39,14.02,14.02c.39.39.39,1.02,0,1.41-.2.2-.45.29-.71.29Z"/>
    <path d="m63,49.37c-.26,0-.51-.1-.71-.29l-12.61-12.61-11.98,11.98c-.39.39-1.02.39-1.41,0s-.39-1.02,0-1.41l13.39-13.39,14.02,14.02c.39.39.39,1.02,0,1.41-.2.2-.45.29-.71.29Z"/>
  </g>
</svg>