<?xml version="1.0" encoding="UTF-8"?>
<svg id="_レイヤー_1" data-name="レイヤー 1" xmlns="http://www.w3.org/2000/svg" viewBox="0 0 344.07 311.59">
  <defs>
    <style>
      .cls-1, .cls-2, .cls-3 {
        fill: #fff;
      }

      .cls-4 {
        fill: #1260a4;
      }

      .cls-4, .cls-5, .cls-2, .cls-6, .cls-3 {
        stroke-miterlimit: 10;
      }

      .cls-4, .cls-2, .cls-6 {
        stroke: #231815;
      }

      .cls-5 {
        fill: none;
        stroke: #000;
        stroke-linecap: round;
        stroke-width: 2px;
      }

      .cls-7, .cls-6 {
        fill: #73b6ba;
      }

      .cls-3 {
        stroke: #73b6ba;
        stroke-width: 3px;
      }
    </style>
  </defs>
  <g>
    <path d="m47.03,131.33L.29,84.6c-.39-.39-.39-1.02,0-1.41s1.02-.39,1.41,0l45.32,45.32,47.62-47.62c.39-.39,1.02-.39,1.41,0s.39,1.02,0,1.41l-49.04,49.04Z"/>
    <path d="m47.03,167L.29,120.27c-.39-.39-.39-1.02,0-1.41s1.02-.39,1.41,0l45.32,45.32,47.62-47.62c.39-.39,1.02-.39,1.41,0s.39,1.02,0,1.41l-49.04,49.04Z"/>
  </g>
  <g>
    <circle class="cls-1" cx="193.18" cy="123.59" r="47"/>
    <path class="cls-7" d="m193.18,172.09c-26.74,0-48.5-21.76-48.5-48.5s21.76-48.5,48.5-48.5,48.5,21.76,48.5,48.5-21.76,48.5-48.5,48.5Zm0-94c-25.09,0-45.5,20.41-45.5,45.5s20.41,45.5,45.5,45.5,45.5-20.41,45.5-45.5-20.41-45.5-45.5-45.5Z"/>
  </g>
  <rect class="cls-6" x="269.91" y=".5" width="73.67" height="73.67"/>
  <rect class="cls-4" x="269.91" y="86.31" width="73.67" height="73.67"/>
  <rect class="cls-2" x="269.91" y="172.12" width="73.67" height="73.67"/>
  <g>
    <path d="m206.18,139.53c-.26,0-.51-.1-.71-.29l-12.61-12.61-11.98,11.98c-.39.39-1.02.39-1.41,0s-.39-1.02,0-1.41l13.39-13.39,14.02,14.02c.39.39.39,1.02,0,1.41-.2.2-.45.29-.71.29Z"/>
    <path d="m206.18,122.96c-.26,0-.51-.1-.71-.29l-12.61-12.61-11.98,11.98c-.39.39-1.02.39-1.41,0s-.39-1.02,0-1.41l13.39-13.39,14.02,14.02c.39.39.39,1.02,0,1.41-.2.2-.45.29-.71.29Z"/>
  </g>
  <circle class="cls-3" cx="193.68" cy="263.09" r="47"/>
  <g>
    <polyline class="cls-5" points="180.68 277.4 193.36 264.72 206.68 278.03"/>
    <polyline class="cls-5" points="180.68 260.83 193.36 248.15 206.68 261.46"/>
  </g>
</svg>