<?xml version="1.0" encoding="utf-8"?>
<!-- Generator: Adobe Illustrator 27.4.1, SVG Export Plug-In . SVG Version: 6.00 Build 0)  -->
<svg version="1.1" id="_レイヤー_1" xmlns="http://www.w3.org/2000/svg" xmlns:xlink="http://www.w3.org/1999/xlink" x="0px"
	 y="0px" viewBox="0 0 107.2 95.9" style="enable-background:new 0 0 107.2 95.9;" xml:space="preserve">
<style type="text/css">
	.st0{fill:#FFFFFF;stroke:#FFFFFF;stroke-width:2;stroke-miterlimit:10;}
</style>
<g>
	<path class="st0" d="M52.4,57l49.8-49.7c0.8-0.8,0.8-2,0-2.8s-2-0.8-2.8,0l-47,46.9L7.8,6.8C7,6,5.8,6,5,6.8s-0.8,2,0,2.8L52.4,57z
		"/>
	<path class="st0" d="M99.4,40.2l-47,46.9L7.8,42.5c-0.8-0.8-2-0.8-2.8,0s-0.8,2,0,2.8l47.4,47.4L102.2,43c0.8-0.8,0.8-2,0-2.8
		C101.4,39.4,100.2,39.4,99.4,40.2z"/>
</g>
</svg>
