<?xml version="1.0" encoding="utf-8"?>
<!-- Generator: Adobe Illustrator 27.4.1, SVG Export Plug-In . SVG Version: 6.00 Build 0)  -->
<svg version="1.1" id="レイヤー_1" xmlns="http://www.w3.org/2000/svg" xmlns:xlink="http://www.w3.org/1999/xlink" x="0px"
	 y="0px" viewBox="0 0 355.93 399.92" style="enable-background:new 0 0 355.93 399.92;" xml:space="preserve">
<style type="text/css">
	.st0{stroke:#000000;stroke-width:1.542;stroke-miterlimit:10;}
</style>
<g>
	<path class="st0" d="M32.26,126.25c-4.03-2.01-7.78-4.77-11.28-8.26c-2.33-4.66-4.08-9.58-5.24-14.77c0-2.65,1.16-4.87,3.5-6.67
		l3.49-3.02c4.02,2.65,7.2,5.56,9.53,8.74h6.35c12.39-2.65,24.99-4.47,37.81-5.48c12.81-1.01,25.42-3.1,37.81-6.28l1.27-2.22
		l3.02-1.27l5.56-5.24l6.51-2.22l1.75-1.27c6.57,2.01,12.87,4.92,18.9,8.74c6.04,3.81,12.39,6.73,19.06,8.74l0.79,1.75l3.02,2.54
		v2.7l-0.48,1.75c1.48,1.48,2.07,3.34,1.75,5.56l-1.75,0.95c-1.06,2.65-2.75,4.66-5.08,6.04c-8.37-1.69-16.2-3.57-23.51-5.64
		c-7.31-2.06-14.72-3.79-22.24-5.16c-7.2,0.64-14.4,0.48-21.61-0.48c-10.91,4.03-22.35,6.62-34.31,7.78
		c-11.97,1.17-22.98,4.98-33.04,11.44L32.26,126.25z"/>
	<path class="st0" d="M197.48,116.24c-4.24-2.33-8.42-4.66-12.55-6.99l-2.06-3.5c-1.48-0.85-1.91-2.12-1.27-3.81v-3.5
		c3.39-3.5,4.66-7.84,3.81-13.03l4.29,3.97l0.95,1.75c2.01,0.85,4.18,1.11,6.51,0.79c4.55-3.18,8.74-6.78,12.55-10.8
		c6.04-9.32,11.86-18.83,17.48-28.52c5.61-9.69,10.75-19.41,15.41-29.15c7.2,1.7,13.5,4.71,18.91,9.06l1.75,4.77l-0.32,2.22
		c11.54,8.9,23.35,16.81,35.43,23.75c12.07,6.94,25.2,11.99,39.4,15.17l0.32,1.75l-2.06,1.75c0.32,2.97-0.43,5.3-2.22,6.99
		L326,90.66l-2.06-0.95c-9.32,0-17.63-1.64-24.94-4.92c-7.31-3.28-14.04-7.84-20.18-13.66l-22.08-23.04
		c-3.07,3.18-5.69,6.3-7.86,9.37c-2.17,3.07-4.26,6.2-6.28,9.37c-4.13,4.55-7.89,9.32-11.28,14.3v2.06l2.54,0.95
		c6.35-0.85,12.13-3.18,17.32-6.99l0.95-1.75l2.07-2.07l2.54-0.48l2.22,0.48l2.54-0.48c4.13,1.17,8.21,2.17,12.23,3.02
		c4.02,0.85,7.62,2.6,10.8,5.24l0.79,5.56l-1.75,2.22c-5.83,1.8-11.7,2.06-17.63,0.79c-5.51,0.95-10.78,1.99-15.81,3.1
		c-5.03,1.11-9.88,2.99-14.54,5.64c-3.71-3.18-7.62-5.61-11.76-7.31c-1.7,3.39-3.71,6.67-6.04,9.85c-3.6,2.12-6.62,4.87-9.06,8.26
		C205.05,111.26,201.29,113.59,197.48,116.24z M196.69,191.7c-3.71-0.53-7.04-2.28-10.01-5.24c-3.39-3.39-5.08-7.41-5.08-12.07
		c1.69-3.49,4.13-6.67,7.31-9.53c4.55-4.98,6.41-10.64,5.56-17l-2.07-10.8c6.35,2.33,11.97,5.35,16.84,9.06
		c2.33,3.5,4.05,7.28,5.16,11.36c1.11,4.08,1.99,8.29,2.62,12.63c-0.85,5.4-2.7,10.43-5.56,15.09l-2.7,1.27l-1.27,3.5
		c-2.33,1.16-4.92,1.75-7.79,1.75H196.69z M266.75,193.44c-5.19-0.32-10.01-1.7-14.46-4.13c-4.45-2.44-8.58-5.67-12.39-9.69
		l-5.08-5.72l-1.43-1.27c-4.87-4.66-8.61-9.87-11.2-15.65c-2.6-5.77-4.16-11.84-4.69-18.19l0.79-2.22l-0.48-1.75
		c1.48,0.32,2.22-0.1,2.22-1.27l-0.48-3.02l3.97-0.48c3.18,4.34,6.94,8.26,11.28,11.76l1.27,2.54c4.87,3.5,9.11,7.49,12.71,11.99
		c3.6,4.5,8,8.5,13.19,11.99c4.34,1.16,8.68,2.17,13.03,3.02c4.34,0.85,8.95,1.01,13.82,0.48l4.77-0.95
		c2.01-1.48,3.76-3.07,5.24-4.77c2.22-3.71,3.65-7.73,4.29-12.07l-6.99-8.74c-1.17,3.49-1.75,7.1-1.75,10.8l-1.59,0.95l-1.75,5.56
		l-5.24,1.27c-3.5-2.65-7.1-5.08-10.8-7.31l-1.75-4.29l0.48-1.75l-3.97-11.76h-1.75c-2.86,2.65-5.3,5.67-7.31,9.06l-5.24,0.95
		l-15.57-11.28l-4.29-6.51l1.27-2.7l5.24,0.95c1.38-1.16,2.96-1.75,4.77-1.75l3.81,0.48l4.45-2.7c3.71-4.34,6.41-9.11,8.1-14.3
		h-3.02c-5.4,1.17-10.72,2.54-15.97,4.13c-5.24,1.59-9.98,4.13-14.22,7.63l-3.97-2.22l-2.22-2.06c-3.39-1.16-6.51-2.91-9.37-5.24
		l-0.95-3.02h1.75l6.51,0.32c8.05-3.39,16.18-6.25,24.39-8.58c8.21-2.33,16.65-4.34,25.34-6.04l0.95-2.7
		c5.72,0,10.75,0.79,15.09,2.38c4.34,1.59,8.68,3.12,13.03,4.61l0.79,3.02c-0.85,1.7-1.11,3.6-0.79,5.72l-1.75,1.59
		c-5.83-0.21-10.49,2.12-13.98,6.99c-2.86,3.81-5.72,7.57-8.58,11.28l-3.02,4.77c4.02,0,7.47,1.33,10.33,3.97l0.95-3.97l-0.95-1.75
		l5.24-0.79l2.22,0.48c4.02-3.81,8.47-6.43,13.34-7.86c4.87-1.43,10.06-2.04,15.57-1.83c6.04-0.21,10.96,2.12,14.77,6.99l4.29,7.78
		l-1.27,2.7l-2.22,3.81c-2.86,0.32-5.62,1.06-8.26,2.22c-4.24-1.69-7.89-4.37-10.96-8.02c-3.07-3.65-6.3-6.91-9.69-9.77l-4.77-0.48
		c-0.85,1.8-1.27,3.81-1.27,6.04c4.87,2.33,9.48,4.98,13.82,7.94c2.86,2.86,5.56,6.04,8.1,9.53c0.95,2.54,2.28,4.98,3.97,7.31
		l7.31,7.78l0.48,3.02l-4.29,4.45l-1.27,3.49l-1.75,0.32l-6.04,5.72c-8.69,2.01-17.29,4.39-25.82,7.15
		c-8.53,2.75-17.55,3.97-27.09,3.65H266.75z"/>
	<path class="st0" d="M153.16,373.29c-6.89-1.17-13.66-2.44-20.33-3.81l-3.02-1.75c-12.5-5.83-25.45-9.67-38.84-11.52
		c-13.4-1.85-26.93-3.52-40.59-5l-1.75,0.48c-6.04-0.32-11.15,0.77-15.33,3.26c-4.19,2.49-8.76,4.16-13.74,5
		c-2.54-2.01-5.4-3.5-8.58-4.45l-2.7-4.29l3.5-0.79v-1.75l1.27-5.24l3.5-0.32l0.48,1.59c1.48,1.8,3.23,2.54,5.24,2.22
		c3.18,0,5.93-1,8.26-3.02c1.69-4.34,3.47-8.6,5.32-12.79c1.85-4.18,3.1-8.55,3.73-13.11c-3.18-2.65-5.43-5.77-6.75-9.37
		c-1.33-3.6-1.99-7.41-1.99-11.44l0.48-1.75l-1.75-0.95l-0.79,1.75l-4.45,0.48l-6.04-0.79c-3.07-3.18-5.82-6.51-8.26-10.01
		l0.48-2.54l4.77-4.77c2.01,2.33,4.45,3.5,7.31,3.5c3.5-1.8,6.83-3.55,10.01-5.24l1.75-2.7l2.7-0.32l1.59,0.32
		c1.48-0.85,3.23-1.11,5.24-0.79l12.23,5.24l2.54,3.02v2.07c-1.48,1.8-2.06,3.87-1.75,6.2l-2.22,0.79c-1.7,3.5-3.13,7.04-4.29,10.64
		c-1.17,3.6-1.75,7.41-1.75,11.44c4.66,3.5,7.25,7.94,7.78,13.34c-1.17,4.03-3.02,7.78-5.56,11.28l-1.75,0.95l-3.02,4.29l1.75,0.79
		c3.5-0.21,6.94-0.21,10.33,0l0.95-2.54l-0.95-5.72c1.8-3.07,2.7-6.64,2.7-10.72c0-4.08,0.1-7.97,0.32-11.68l-0.79-16.84l0.79-2.7
		c-0.53-4.02-0.53-8.05,0-12.07c-0.53-5.72-1.64-11.33-3.34-16.84c-2.65-1.69-4.56-3.87-5.72-6.51c-2.86,1.17-5.77,1.59-8.74,1.27
		l-3.02-3.02c-4.03-4.02-7.26-8-9.69-11.91c-2.44-3.92-4.82-7.89-7.15-11.92l-4.77-2.54l-0.95-3.49h3.5l6.99,0.95
		c6.04,0.85,11.54,1.96,16.52,3.34l0.32,1.75l2.22-0.32l1.75,4.77c1.48,0.21,2.22,1.06,2.22,2.54c2.86,4.34,4.45,9.21,4.77,14.61
		L54.66,257l6.51,1.27l6.2-0.48c2.86,1.7,6.3,2.28,10.33,1.75c4.02-1.48,8.1-2.49,12.23-3.02l0.32-1.75
		c-2.22-2.86-4.13-5.96-5.72-9.29c-1.59-3.34-2.86-6.86-3.81-10.56c-2.86,1.38-5.46,1.96-7.78,1.75l-5.56-4.77
		c-2.97-2.33-5.3-5.08-6.99-8.26v-2.22l2.54-6.04c3.81,3.18,7.89,4.77,12.23,4.77c6.04-2.33,12.23-4.34,18.59-6.04
		c6.35-1.69,12.87-3.28,19.54-4.77v-1.75l-0.48-2.54l17.48-0.48l16.36,10.8c1.16,1.48,1.75,3.07,1.75,4.77
		c-3.18,1.7-6.57,2.99-10.17,3.89c-3.6,0.9-6.73,2.94-9.37,6.12l-6.51,6.04l-5.08,3.5c-3.18,3.39-6.51,6.83-10.01,10.33l0.79,2.22
		h1.75c5.19-0.95,10.11-2.44,14.77-4.45c2.33-2.22,4.66-4.08,6.99-5.56l2.54-0.79l2.7,0.32l4.77-1.27
		c5.72,4.66,11.92,8.26,18.59,10.8c2.01,1.7,3.02,3.87,3.02,6.51l-3.02,1.75c-1.7,1.17-3.55,2.17-5.56,3.02
		c-1.48,4.87-2.81,9.9-3.97,15.09l0.79,2.7c0.64,10.06,0.53,20.12-0.32,30.18c-0.95,3.07-0.95,6.09,0,9.06
		c0.95,8.26,0.05,16.36-2.7,24.31c-2.54,0.85-4.98,2.28-7.31,4.29c3.39,0.95,6.83,1.53,10.33,1.75l10.49-1.75l1.75,0.48
		c6.36-1.7,12.97-2.54,19.86-2.54l1.43,3.02l-1.75,2.07l-1.75,0.95c-0.85,4.02-2.6,7.78-5.24,11.28l-3.5,2.54l-0.48,1.75
		C166.5,371.11,160.15,372.97,153.16,373.29z M123.77,349.14l-5.24-5.24l-7.78-7.31l-0.95,5.08l-6.83,2.22l-6.2-3.02
		c-0.85-4.02-1.48-8.21-1.91-12.55c-0.42-4.34-0.48-8.68-0.16-13.03v-4.29l0.32-3.97l-2.54-1.27c-4.03,0.32-7.78,1.48-11.28,3.5
		l-3.02,3.02l-0.95,13.03l0.95,5.56c-0.32,4.98-1.33,9.59-3.02,13.82c6.35,1.17,12.97,1.75,19.86,1.75
		c6.67,0.64,12.92,1.38,18.75,2.22l4.29-1.27C119.85,348.24,121.75,348.82,123.77,349.14z M82.46,298.46
		c1.48-1.48,3.39-2.22,5.72-2.22l2.07,0.48l4.77-1.75l0.48-9.85l-3.02-1.43l-11.28,4.77c-2.01,2.65-3.18,5.72-3.5,9.21L82.46,298.46
		z M89.93,272.88l5.56-1.27l0.95-5.24c-1.17-1.69-2.91-2.22-5.24-1.59l-10.48,3.81c-0.85,1.48-1.11,3.23-0.79,5.24l3.02,0.79
		L89.93,272.88z M98.98,240v-2.54c2.65-4.66,4.98-9.27,6.99-13.82c-4.34,1.17-8.34,2.33-11.99,3.5c-3.65,1.17-7.18,2.76-10.56,4.77
		l-0.48,1.59C88.13,236.13,93.48,238.31,98.98,240z M131.07,292.42v-3.02l-1.27-9.05l-12.23-0.95l-2.07,0.48l-1.75-0.48l-3.97,0.95
		l-0.79,6.04l0.79,5.56l6.51,0.48l13.03-0.95L131.07,292.42z M122.02,332.14c3.18-1.38,6.51-2.49,10.01-3.34l-0.48-4.45l1.27-5.56
		c-0.85-5.4-1.27-10.75-1.27-16.05l-17.32-0.79l-3.18,1.27l-1.27,2.54v21.29l2.22,2.07l0.79,1.75L122.02,332.14z M129.33,268.59
		c0.32-2.75,0.32-5.51,0-8.26l-4.77-0.79c-4.34,0.53-8.37,1.54-12.07,3.02l-0.48,1.75l1.75,3.81l1.75,0.48l2.07-0.48h7.47
		L129.33,268.59z"/>
	<path class="st0" d="M186.68,376.46c-2.33-3.18-3.87-6.81-4.61-10.88c-0.74-4.08-1.85-7.97-3.34-11.68l6.51-10.01l3.97,3.81
		l3.97,1.75c3.39-2.54,6.83-4.98,10.33-7.31c3.5-2.33,6.83-5.08,10.01-8.26c4.87-6.14,9.13-12.39,12.79-18.75
		c3.65-6.35,6.33-13.19,8.02-20.49l-1.75-0.79c-4.66,2.01-9.37,3.68-14.14,5c-4.77,1.33-9.43,2.99-13.98,5l-1.75-0.48l-8.74,1.27
		l-5.56-3.81l-2.7-3.97l-4.77-2.54c-1.17-2.33-1.91-4.82-2.22-7.47l0.95-3.97l-1.27-3.81h1.75c4.55,3.71,9.9,5.88,16.04,6.51
		c7.52-1.48,15.04-3.15,22.56-5c7.52-1.85,14.72-4.26,21.61-7.23c0.85-4.66,1.16-9.58,0.95-14.77l-0.48-1.75v-2.54
		c0.85-2.96,1.11-6.04,0.79-9.21l-3.34-0.48c-2.12,0.32-3.87,1.22-5.24,2.7l-2.22,3.5l-4.77,2.22c-3.18-1.16-6.2-2.91-9.06-5.24
		l-6.99-6.51c-1.17-3.28-1.75-6.78-1.75-10.48h2.22c1.69,2.65,4.13,3.81,7.31,3.5c8.15-2.65,16.12-6.01,23.91-10.09
		c7.79-4.08,15.28-8.39,22.48-12.95l1.43-3.02l6.04-1.43c5.72,2.97,11.54,5.46,17.48,7.47c5.93,2.01,11.81,4.45,17.63,7.31
		c2.33,2.65,3.34,5.88,3.02,9.69l-1.27,2.54l0.79,3.02l-13.03,1.75c-4.03-0.53-7.97-1.16-11.83-1.91
		c-3.87-0.74-7.97-1.11-12.31-1.11l-11.76,3.02l-0.95,3.02l0.48,3.5c-1.17,6.14-2.44,12.23-3.81,18.27l1.27,4.45h2.54
		c4.34-2.12,9.06-3.39,14.14-3.81c5.08-0.42,9.79-1.8,14.14-4.13l1.75-1.27l1.27-1.75c3.71-0.85,7.57-1.59,11.6-2.22
		c5.82,2.97,11.78,5.46,17.87,7.47c6.09,2.01,11.89,4.61,17.39,7.78l0.32,3.5c-0.21,2.65-0.9,5.14-2.07,7.47l0.32,3.02l-10.33,0.79
		l-16.52-3.5l-2.22,0.48l-8.58-1.27c-5.51,0.32-10.86,0.9-16.05,1.75c-5.19,0.85-10.27,2.01-15.25,3.5l-0.32,3.5l2.07,4.77
		c2.33,4.34,4.92,8.26,7.78,11.76c3.18,2.54,6.59,5.14,10.25,7.79c3.65,2.65,7.17,5.24,10.56,7.78c4.98,4.34,9.56,8.71,13.74,13.11
		c4.18,4.4,8.6,8.45,13.26,12.15l2.54,2.22c5.19,2.86,10.7,5.29,16.52,7.31c0,1.8,0.69,3.12,2.06,3.97
		c1.16,0.32,1.64,1.16,1.43,2.54l-0.95,2.22l0.48,2.7c-5.51,3.39-11.7,5.08-18.59,5.08h-3.5c-4.66-0.85-9.08-2.14-13.26-3.89
		c-4.19-1.75-8.29-3.63-12.31-5.64l-10.01-9.53c-0.85-2.01-2.17-3.6-3.97-4.77c-2.86-3.81-5.72-7.31-8.58-10.49l-1.75-0.79
		c-3.5-6.14-7.33-11.97-11.52-17.48c-4.19-5.51-8.02-11.28-11.52-17.32c-2.65,6.04-4.98,12.1-6.99,18.19
		c-2.01,6.09-4.77,11.89-8.26,17.4l-1.75,1.27l-3.81,7.94c-1.17,2.54-2.49,4.71-3.97,6.51l-4.29,3.81l-2.22,3.18l-8.26,5.08
		l-2.07,2.7c-6.35,2.33-12.71,4.66-19.06,6.99l-2.7-0.48L186.68,376.46z"/>
</g>
</svg>
