<?xml version="1.0" encoding="utf-8"?>
<!-- Generator: Adobe Illustrator 25.0.0, SVG Export Plug-In . SVG Version: 6.00 Build 0)  -->
<svg version="1.1" id="_レイヤー_1" xmlns="http://www.w3.org/2000/svg" xmlns:xlink="http://www.w3.org/1999/xlink" x="0px"
	 y="0px" viewBox="0 0 871.4 300" style="enable-background:new 0 0 871.4 300;" xml:space="preserve">
<style type="text/css">
	.st0{fill:url(#SVGID_1_);}
	.st1{fill:url(#SVGID_2_);}
	.st2{fill:url(#SVGID_3_);}
	.st3{fill:url(#SVGID_4_);}
	.st4{fill:#FFFFFF;}
</style>
<g>
	
		<linearGradient id="SVGID_1_" gradientUnits="userSpaceOnUse" x1="39.62" y1="216.9698" x2="39.62" y2="80.9698" gradientTransform="matrix(1 0 0 -1 0 299.8898)">
		<stop  offset="0" style="stop-color:#1166B0"/>
		<stop  offset="9.000000e-02" style="stop-color:#287AB4"/>
		<stop  offset="0.23" style="stop-color:#4493B9"/>
		<stop  offset="0.38" style="stop-color:#5AA6BD"/>
		<stop  offset="0.54" style="stop-color:#6AB3C0"/>
		<stop  offset="0.73" style="stop-color:#73BBC2"/>
		<stop  offset="1" style="stop-color:#76BEC3"/>
	</linearGradient>
	<polygon class="st0" points="65.2,82.9 39.6,82.9 14,150.9 39.6,218.9 65.2,218.9 39.6,150.9 	"/>
	
		<linearGradient id="SVGID_2_" gradientUnits="userSpaceOnUse" x1="119.1583" y1="204.075" x2="190.864" y2="79.8751" gradientTransform="matrix(1 0 0 -1 0 299.8898)">
		<stop  offset="0" style="stop-color:#1166B0"/>
		<stop  offset="9.000000e-02" style="stop-color:#287AB4"/>
		<stop  offset="0.23" style="stop-color:#4493B9"/>
		<stop  offset="0.38" style="stop-color:#5AA6BD"/>
		<stop  offset="0.54" style="stop-color:#6AB3C0"/>
		<stop  offset="0.73" style="stop-color:#73BBC2"/>
		<stop  offset="1" style="stop-color:#76BEC3"/>
	</linearGradient>
	<polygon class="st1" points="192.8,218.9 167.1,218.9 123.7,116.1 136.5,85.8 	"/>
	
		<linearGradient id="SVGID_3_" gradientUnits="userSpaceOnUse" x1="161.2381" y1="106.4488" x2="218.5123" y2="205.6461" gradientTransform="matrix(1 0 0 -1 0 299.8898)">
		<stop  offset="0" style="stop-color:#1166B0"/>
		<stop  offset="9.000000e-02" style="stop-color:#287AB4"/>
		<stop  offset="0.23" style="stop-color:#4493B9"/>
		<stop  offset="0.38" style="stop-color:#5AA6BD"/>
		<stop  offset="0.54" style="stop-color:#6AB3C0"/>
		<stop  offset="0.73" style="stop-color:#73BBC2"/>
		<stop  offset="1" style="stop-color:#76BEC3"/>
	</linearGradient>
	<polygon class="st2" points="224.5,150.9 200.1,215.9 186.5,183.8 198.9,150.9 173.3,82.9 198.9,82.9 	"/>
	
		<linearGradient id="SVGID_4_" gradientUnits="userSpaceOnUse" x1="55.4284" y1="93.6999" x2="127.2236" y2="218.0588" gradientTransform="matrix(1 0 0 -1 0 299.8898)">
		<stop  offset="0" style="stop-color:#1166B0"/>
		<stop  offset="9.000000e-02" style="stop-color:#287AB4"/>
		<stop  offset="0.23" style="stop-color:#4493B9"/>
		<stop  offset="0.38" style="stop-color:#5AA6BD"/>
		<stop  offset="0.54" style="stop-color:#6AB3C0"/>
		<stop  offset="0.73" style="stop-color:#73BBC2"/>
		<stop  offset="1" style="stop-color:#76BEC3"/>
	</linearGradient>
	<polygon class="st3" points="129.1,82.9 72.8,216.2 60.7,184.2 103.5,82.9 	"/>
</g>
<path class="st4" d="M245.3,152.9H256l6.2,34.3c1.2,7,2.3,14,3.5,21.1h0.4c1.4-7.1,3-14.1,4.5-21.1l8.5-34.4h9.2l8.5,34.4
	c1.5,6.9,3,14,4.5,21.1h0.5c1.1-7.2,2.2-14.2,3.3-21.1l6.3-34.4h9.9l-13,65.9h-12.8l-8.9-36.6c-1.2-5.2-2.1-10.1-3-15.1h-0.4
	c-1,5-2.1,9.9-3.1,15.1l-8.7,36.6h-12.5L245.3,152.9L245.3,152.9z"/>
<path class="st4" d="M331.2,193c0-15.9,11-25.9,22.5-25.9c13.1,0,20.1,9.4,20.1,23.3c0,2.1-0.3,4-0.5,5.3h-31.9
	c0.8,9.4,6.7,15,15.2,15c4.4,0,8.1-1.3,11.7-3.7l3.6,6.5c-4.6,3-10.2,5.2-16.6,5.2C341.8,218.8,331.2,209.3,331.2,193L331.2,193z
	 M364.8,188.6c0-8.4-3.9-13.3-11-13.3c-6.2,0-11.6,4.7-12.6,13.3H364.8L364.8,188.6z"/>
<path class="st4" d="M398.4,213.7h-0.3l-1,5.1h-8v-71.3h10.3v18.9l-0.4,8.4c4.2-3.7,9.5-6.4,14.7-6.4c12.4,0,19.5,9.9,19.5,25.1
	c0,16.9-10.1,26.6-21.2,26.6C407.5,220,402.6,217.6,398.4,213.7L398.4,213.7z M422.5,193.6c0-10.3-3.3-16.6-11.5-16.6
	c-3.9,0-7.6,2-11.6,6V207c3.8,3.3,7.6,4.5,10.6,4.5C417.2,211.4,422.5,205.1,422.5,193.6L422.5,193.6z"/>
<path class="st4" d="M454,169.7h58.6c1.9,0,5.2-0.1,7.5-0.4v9.2c-2.2-0.1-5.2-0.2-7.5-0.2h-23.1c-0.4,9.5-2.1,17.4-5.5,23.8
	c-3.2,6.1-10,12.7-17.8,16.7l-8.2-6.1c6.6-2.7,13.1-7.9,16.5-13.3c3.9-6,5-13.1,5.4-21.1H454c-2.7,0-5.6,0.1-8.1,0.3v-9.3
	C448.4,169.5,451.3,169.7,454,169.7L454,169.7z M465.1,147.1h30.2c2.8,0,6.2-0.2,8.9-0.5v9.2c-2.9-0.2-6.1-0.4-8.9-0.4h-30.1
	c-3,0-6.4,0.2-8.8,0.4v-9.2C459.1,147,462.2,147.1,465.1,147.1z M516.5,152.1l-5.9,2.5c-1.8-3.6-4.6-8.9-7.1-12.4l5.7-2.4
	C511.5,143,514.7,148.6,516.5,152.1L516.5,152.1z M526.8,148.1l-5.8,2.6c-1.9-3.9-4.8-8.9-7.3-12.4l5.7-2.4
	C521.8,139.3,525.2,144.9,526.8,148.1L526.8,148.1z"/>
<path class="st4" d="M566.6,218.8l-7.6-7.1c16.7-6.2,24.6-13.9,24.6-37.6v-3.6h-23.5V184c0,3.6,0.3,7.4,0.4,8.7h-9.9
	c0.2-1.2,0.5-5,0.5-8.7v-13.4h-8.8c-4.2,0-7.9,0.2-9.3,0.3v-9.7c1.2,0.2,5.2,0.7,9.3,0.7h8.8v-10.4c0-2.1-0.2-4.8-0.5-7.2h10
	c-0.2,1.2-0.5,3.9-0.5,7.2v10.3h23.5v-10.4c0-3.6-0.3-6.5-0.5-7.8h10.1c-0.1,1.2-0.5,4.2-0.5,7.8v10.4h8.3c4.4,0,7.2-0.3,8.9-0.5
	v9.5c-1.3-0.2-4.6-0.3-8.9-0.3h-8.4v3C592.8,196.7,587.6,209.5,566.6,218.8L566.6,218.8z M606,156l-5.2,1.8
	c-1.3-3.9-3.1-8.9-4.9-12.4l5.1-1.6C602.6,147,604.8,152.5,606,156L606,156z M615.1,153.2l-5.2,1.7c-1.3-3.9-3.2-8.9-5-12.4l5.1-1.6
	C611.7,144.3,614,149.6,615.1,153.2L615.1,153.2z"/>
<path class="st4" d="M658.1,165.7c9.3-5.7,18.8-14,24.9-21.3l7.5,7.2c-6.8,6.9-15.2,13.8-24.1,19.6v37.1c0,3.7,0.2,8.6,0.6,10.6H656
	c0.3-2,0.5-6.9,0.5-10.6v-31.1c-9.4,5.1-21.2,10.3-33,13.9l-4.4-8.9C634.8,177.9,648.2,171.8,658.1,165.7L658.1,165.7z"/>
<path class="st4" d="M735.2,196.9c14.4-8.9,25.6-22.3,31-33.7l5.5,9.8c-6.4,11.6-17.4,23.8-31.4,32.4c-9,5.6-20.4,10.8-34.3,13.3
	l-6-9.2C715,207.1,726.6,202.1,735.2,196.9L735.2,196.9z M732.2,168.2l-7.1,7.2c-4.7-4.7-15.7-14.5-22.4-19l6.5-7
	C715.5,153.8,727.2,163.1,732.2,168.2L732.2,168.2z"/>
<path class="st4" d="M810.9,191.5c-1.2-2.7-4.3-7.7-7-11.8v39.1h-8v-36.2c-3.3,8.1-7.3,15.7-11.5,20.8c-0.8-2.2-2.8-5.6-4-7.7
	c5.3-6.1,11-16.7,14.3-26.2h-13.2v-7.8h14.3v-12c-3.8,0.7-7.7,1.2-11.3,1.8c-0.3-1.8-1.4-4.7-2.3-6.4c10-1.6,21.5-4.2,28.5-7.2
	l4.7,6.8c-3.4,1.3-7.3,2.4-11.5,3.4v13.7h12.5v7.8h-12.5v1.2c2.7,2.8,10.3,11.9,12,14.2L810.9,191.5L810.9,191.5z M852.8,195.9v22.9
	h-8.2v-21.5l-28.2,4.7l-1.2-8l29.4-4.9v-52.4h8.2v51.1l9.8-1.6l1.2,7.8L852.8,195.9z M833.3,183.8c-3-3.9-9.5-9.6-14.9-13.3l5.3-4.8
	c5.4,3.6,12.2,8.9,15.3,12.7L833.3,183.8z M835.6,160.3c-2.7-3.8-8.8-9.2-13.9-13l5.5-4.7c5.1,3.5,11.3,8.7,14.2,12.4L835.6,160.3z"
	/>
</svg>
