<?xml version="1.0" encoding="utf-8"?>
<!-- Generator: Adobe Illustrator 27.4.1, SVG Export Plug-In . SVG Version: 6.00 Build 0)  -->
<svg version="1.1" id="レイヤー_1" xmlns="http://www.w3.org/2000/svg" xmlns:xlink="http://www.w3.org/1999/xlink" x="0px"
	 y="0px" viewBox="0 0 871.4 300" style="enable-background:new 0 0 871.4 300;" xml:space="preserve">
<style type="text/css">
	.st0{opacity:0.6;}
	.st1{fill:none;stroke:#000000;stroke-width:0.8925;stroke-miterlimit:10;}
	.st2{fill:url(#SVGID_1_);}
	.st3{fill:url(#SVGID_00000170966266322587892130000012951218728257284528_);}
	.st4{fill:url(#SVGID_00000003800205138602056540000010222070217760901805_);}
	.st5{fill:url(#SVGID_00000036249170312084185050000005248696213085333176_);}
	.st6{fill:#083B46;}
	.st7{fill:url(#SVGID_00000165919951940291506320000007744356159432387716_);}
	.st8{fill:url(#SVGID_00000031910330124538927600000003013725276204235162_);}
	.st9{fill:url(#SVGID_00000128485061191744917340000002618362147937330581_);}
	.st10{fill:url(#SVGID_00000049181622676480020360000018107660180562005424_);}
	.st11{fill:#0E4323;}
	.st12{fill:url(#SVGID_00000176750064211369370260000012574055396734644369_);}
	.st13{fill:url(#SVGID_00000161602414540159114660000010212055551839996322_);}
	.st14{fill:url(#SVGID_00000075157175900927532380000003396139148902842540_);}
	.st15{fill:url(#SVGID_00000029009475535228179530000005231108689700402322_);}
	.st16{fill:#2C0706;}
</style>
<g>
	<g>
		<linearGradient id="SVGID_1_" gradientUnits="userSpaceOnUse" x1="39.6182" y1="82.9233" x2="39.6182" y2="218.9216">
			<stop  offset="0" style="stop-color:#1166B0"/>
			<stop  offset="0.038" style="stop-color:#1F6EB4"/>
			<stop  offset="0.1587" style="stop-color:#3D86BB"/>
			<stop  offset="0.2876" style="stop-color:#529BBF"/>
			<stop  offset="0.4255" style="stop-color:#62AAC1"/>
			<stop  offset="0.5764" style="stop-color:#6DB6C2"/>
			<stop  offset="0.7504" style="stop-color:#74BCC3"/>
			<stop  offset="1" style="stop-color:#76BEC3"/>
		</linearGradient>
		<polygon class="st2" points="65.22,82.92 39.62,82.92 14.02,150.92 39.62,218.92 65.22,218.92 39.62,150.92 		"/>
		
			<linearGradient id="SVGID_00000108278561534634921290000005033976978183045258_" gradientUnits="userSpaceOnUse" x1="119.1606" y1="95.8181" x2="190.8645" y2="220.0128">
			<stop  offset="0" style="stop-color:#1166B0"/>
			<stop  offset="0.038" style="stop-color:#1F6EB4"/>
			<stop  offset="0.1587" style="stop-color:#3D86BB"/>
			<stop  offset="0.2876" style="stop-color:#529BBF"/>
			<stop  offset="0.4255" style="stop-color:#62AAC1"/>
			<stop  offset="0.5764" style="stop-color:#6DB6C2"/>
			<stop  offset="0.7504" style="stop-color:#74BCC3"/>
			<stop  offset="1" style="stop-color:#76BEC3"/>
		</linearGradient>
		<polygon style="fill:url(#SVGID_00000108278561534634921290000005033976978183045258_);" points="192.76,218.92 167.15,218.92 
			123.67,116.09 136.47,85.82 		"/>
		
			<linearGradient id="SVGID_00000115491116001807300910000012426487658140246973_" gradientUnits="userSpaceOnUse" x1="161.2399" y1="193.4414" x2="218.5095" y2="94.2476">
			<stop  offset="0" style="stop-color:#1166B0"/>
			<stop  offset="0.038" style="stop-color:#1F6EB4"/>
			<stop  offset="0.1587" style="stop-color:#3D86BB"/>
			<stop  offset="0.2876" style="stop-color:#529BBF"/>
			<stop  offset="0.4255" style="stop-color:#62AAC1"/>
			<stop  offset="0.5764" style="stop-color:#6DB6C2"/>
			<stop  offset="0.7504" style="stop-color:#74BCC3"/>
			<stop  offset="1" style="stop-color:#76BEC3"/>
		</linearGradient>
		<polygon style="fill:url(#SVGID_00000115491116001807300910000012426487658140246973_);" points="224.5,150.92 200.05,215.85 
			186.51,183.82 198.9,150.92 173.3,82.92 198.9,82.92 		"/>
		
			<linearGradient id="SVGID_00000183233978078422652410000004489540479663752068_" gradientUnits="userSpaceOnUse" x1="55.4285" y1="206.1934" x2="127.2247" y2="81.8388">
			<stop  offset="0" style="stop-color:#1166B0"/>
			<stop  offset="0.038" style="stop-color:#1F6EB4"/>
			<stop  offset="0.1587" style="stop-color:#3D86BB"/>
			<stop  offset="0.2876" style="stop-color:#529BBF"/>
			<stop  offset="0.4255" style="stop-color:#62AAC1"/>
			<stop  offset="0.5764" style="stop-color:#6DB6C2"/>
			<stop  offset="0.7504" style="stop-color:#74BCC3"/>
			<stop  offset="1" style="stop-color:#76BEC3"/>
		</linearGradient>
		<polygon style="fill:url(#SVGID_00000183233978078422652410000004489540479663752068_);" points="129.11,82.92 72.75,216.19 
			60.69,184.17 103.5,82.92 		"/>
	</g>
	<path class="st6" d="M235.34,152.86h10.65l6.17,34.35c1.16,6.98,2.32,14.04,3.49,21.11H256c1.43-7.07,2.95-14.13,4.47-21.11
		l8.5-34.35h9.21l8.5,34.35c1.52,6.89,2.95,13.96,4.47,21.11h0.45c1.07-7.16,2.24-14.22,3.31-21.11l6.26-34.35h9.93l-12.97,65.93
		h-12.79l-8.86-36.59c-1.16-5.19-2.15-10.11-3.04-15.12h-0.36c-0.98,5.01-2.06,9.93-3.13,15.12l-8.68,36.59h-12.52L235.34,152.86z"
		/>
	<path class="st6" d="M321.16,193.03c0-15.92,11-25.85,22.45-25.85c13.06,0,20.13,9.39,20.13,23.26c0,2.06-0.27,4.03-0.54,5.28
		h-31.94c0.81,9.39,6.71,15.03,15.21,15.03c4.38,0,8.14-1.34,11.72-3.67l3.58,6.53c-4.56,3.04-10.2,5.19-16.64,5.19
		C331.81,218.79,321.16,209.31,321.16,193.03z M354.8,188.56c0-8.41-3.85-13.33-11-13.33c-6.17,0-11.63,4.74-12.61,13.33H354.8z"/>
	<path class="st6" d="M388.39,213.69h-0.27l-0.98,5.1h-8.05v-71.3h10.29v18.88l-0.36,8.41c4.2-3.67,9.48-6.44,14.67-6.44
		c12.43,0,19.5,9.93,19.5,25.05c0,16.91-10.11,26.57-21.2,26.57C397.52,219.95,392.6,217.63,388.39,213.69z M412.55,193.57
		c0-10.29-3.31-16.64-11.54-16.64c-3.85,0-7.6,1.97-11.63,5.99v24.06c3.76,3.31,7.6,4.47,10.65,4.47
		C407.18,211.46,412.55,205.1,412.55,193.57z"/>
	<path class="st6" d="M444.04,169.68h58.59c1.88,0,5.19-0.09,7.51-0.45v9.21c-2.15-0.09-5.19-0.18-7.51-0.18h-23.08
		c-0.36,9.48-2.15,17.35-5.55,23.79c-3.22,6.08-10.02,12.7-17.8,16.73l-8.23-6.08c6.62-2.68,13.06-7.87,16.55-13.33
		c3.85-5.99,5.01-13.06,5.37-21.11h-25.85c-2.68,0-5.64,0.09-8.14,0.27v-9.3C438.4,169.5,441.26,169.68,444.04,169.68z
		 M455.13,147.14h30.24c2.77,0,6.17-0.18,8.94-0.54v9.21c-2.86-0.18-6.08-0.36-8.94-0.36h-30.15c-3.04,0-6.35,0.18-8.77,0.36v-9.21
		C449.14,146.96,452.18,147.14,455.13,147.14z M506.48,152.06l-5.9,2.5c-1.79-3.58-4.65-8.95-7.07-12.35l5.73-2.42
		C501.47,143.02,504.69,148.57,506.48,152.06z M516.76,148.12l-5.81,2.59c-1.88-3.85-4.83-8.95-7.33-12.35l5.73-2.42
		C511.75,139.36,515.15,144.9,516.76,148.12z"/>
	<path class="st6" d="M556.64,218.79l-7.6-7.07c16.73-6.17,24.6-13.87,24.6-37.57v-3.58h-23.53V184c0,3.58,0.27,7.42,0.36,8.68
		h-9.93c0.18-1.25,0.45-5.01,0.45-8.68v-13.42h-8.77c-4.2,0-7.87,0.18-9.3,0.27v-9.66c1.16,0.18,5.19,0.72,9.3,0.72h8.77v-10.38
		c0-2.15-0.18-4.83-0.45-7.16h10.02c-0.18,1.25-0.45,3.94-0.45,7.25v10.29h23.53v-10.38c0-3.58-0.27-6.53-0.45-7.78h10.11
		c-0.09,1.25-0.45,4.2-0.45,7.78v10.38h8.32c4.38,0,7.25-0.27,8.95-0.54v9.48c-1.34-0.18-4.56-0.27-8.86-0.27h-8.41v3.04
		C582.85,196.7,577.57,209.49,556.64,218.79z M596,156l-5.19,1.79c-1.34-3.85-3.13-8.95-4.92-12.43l5.1-1.61
		C592.6,147.05,594.83,152.51,596,156z M605.12,153.22l-5.19,1.7c-1.34-3.94-3.22-8.95-5.01-12.43l5.1-1.61
		C601.72,144.28,603.96,149.64,605.12,153.22z"/>
	<path class="st6" d="M648.11,165.66c9.3-5.73,18.79-14.04,24.87-21.29l7.51,7.16c-6.8,6.89-15.21,13.78-24.06,19.59v37.12
		c0,3.67,0.18,8.59,0.63,10.56h-11.09c0.27-1.97,0.54-6.89,0.54-10.56v-31.13c-9.39,5.1-21.2,10.29-33.01,13.87l-4.38-8.86
		C624.77,177.91,638.18,171.83,648.11,165.66z"/>
	<path class="st6" d="M725.2,196.87c14.4-8.86,25.58-22.27,31.04-33.73l5.46,9.75c-6.44,11.63-17.44,23.8-31.4,32.38
		c-9.04,5.55-20.4,10.82-34.26,13.33l-5.99-9.21C704.98,207.16,716.61,202.15,725.2,196.87z M722.15,168.25l-7.07,7.25
		c-4.65-4.74-15.74-14.49-22.36-18.96l6.53-6.98C705.52,153.76,717.15,163.06,722.15,168.25z"/>
	<path class="st6" d="M800.88,191.51c-1.25-2.68-4.29-7.69-6.98-11.81v39.09h-8.05v-36.23c-3.31,8.14-7.33,15.74-11.45,20.84
		c-0.8-2.24-2.77-5.64-4.03-7.69c5.28-6.08,11-16.73,14.31-26.21h-13.15v-7.78h14.31v-11.99c-3.85,0.72-7.69,1.25-11.27,1.79
		c-0.27-1.79-1.43-4.74-2.32-6.44c10.02-1.61,21.47-4.2,28.45-7.25l4.74,6.8c-3.4,1.34-7.34,2.42-11.54,3.4v13.69h12.52v7.78H793.9
		v1.25c2.68,2.77,10.29,11.9,11.99,14.22L800.88,191.51z M842.83,195.89v22.9h-8.23v-21.47l-28.18,4.74l-1.25-7.96l29.43-4.92
		v-52.42h8.23v51.08l9.75-1.61l1.25,7.78L842.83,195.89z M823.33,183.82c-2.95-3.85-9.48-9.57-14.94-13.33l5.28-4.83
		c5.37,3.58,12.17,8.95,15.3,12.7L823.33,183.82z M825.57,160.29c-2.68-3.76-8.77-9.21-13.87-12.97l5.46-4.74
		c5.1,3.49,11.27,8.68,14.22,12.43L825.57,160.29z"/>
</g>
</svg>
