<?xml version="1.0" encoding="UTF-8"?>
<svg id="_レイヤー_1" data-name="レイヤー 1" xmlns="http://www.w3.org/2000/svg" xmlns:xlink="http://www.w3.org/1999/xlink" viewBox="0 0 871.4 300">
  <defs>
    <style>
      .cls-1 {
        fill: #fff;
      }

      .cls-2 {
        fill: url(#_名称未設定グラデーション_6);
      }

      .cls-3 {
        fill: url(#_名称未設定グラデーション_6-4);
      }

      .cls-4 {
        fill: url(#_名称未設定グラデーション_6-3);
      }

      .cls-5 {
        fill: url(#_名称未設定グラデーション_6-2);
      }
    </style>
    <linearGradient id="_名称未設定グラデーション_6" data-name="名称未設定グラデーション 6" x1="39.62" y1="82.92" x2="39.62" y2="218.92" gradientUnits="userSpaceOnUse">
      <stop offset="0" stop-color="#1166b0"/>
      <stop offset=".09" stop-color="#287ab4"/>
      <stop offset=".23" stop-color="#4493b9"/>
      <stop offset=".38" stop-color="#5aa6bd"/>
      <stop offset=".54" stop-color="#6ab3c0"/>
      <stop offset=".73" stop-color="#73bbc2"/>
      <stop offset="1" stop-color="#76bec3"/>
    </linearGradient>
    <linearGradient id="_名称未設定グラデーション_6-2" data-name="名称未設定グラデーション 6" x1="119.16" y1="95.82" x2="190.86" y2="220.01" xlink:href="#_名称未設定グラデーション_6"/>
    <linearGradient id="_名称未設定グラデーション_6-3" data-name="名称未設定グラデーション 6" x1="161.24" y1="193.44" x2="218.51" y2="94.25" xlink:href="#_名称未設定グラデーション_6"/>
    <linearGradient id="_名称未設定グラデーション_6-4" data-name="名称未設定グラデーション 6" x1="55.43" y1="206.19" x2="127.22" y2="81.84" xlink:href="#_名称未設定グラデーション_6"/>
  </defs>
  <g>
    <polygon class="cls-2" points="65.22 82.92 39.62 82.92 14.02 150.92 39.62 218.92 65.22 218.92 39.62 150.92 65.22 82.92"/>
    <polygon class="cls-5" points="192.76 218.92 167.15 218.92 123.67 116.09 136.47 85.82 192.76 218.92"/>
    <polygon class="cls-4" points="224.5 150.92 200.05 215.85 186.51 183.82 198.9 150.92 173.3 82.92 198.9 82.92 224.5 150.92"/>
    <polygon class="cls-3" points="129.11 82.92 72.75 216.19 60.69 184.17 103.5 82.92 129.11 82.92"/>
  </g>
  <path class="cls-1" d="m235.34,152.86h10.65l6.17,34.35c1.16,6.98,2.32,14.04,3.49,21.11h.36c1.43-7.07,2.95-14.13,4.47-21.11l8.5-34.35h9.21l8.5,34.35c1.52,6.89,2.95,13.96,4.47,21.11h.45c1.07-7.16,2.24-14.22,3.31-21.11l6.26-34.35h9.93l-12.97,65.93h-12.79l-8.86-36.59c-1.16-5.19-2.15-10.11-3.04-15.12h-.36c-.98,5.01-2.06,9.93-3.13,15.12l-8.68,36.59h-12.52l-13.42-65.93Z"/>
  <path class="cls-1" d="m321.16,193.03c0-15.92,11-25.85,22.45-25.85,13.06,0,20.13,9.39,20.13,23.26,0,2.06-.27,4.03-.54,5.28h-31.94c.81,9.39,6.71,15.03,15.21,15.03,4.38,0,8.14-1.34,11.72-3.67l3.58,6.53c-4.56,3.04-10.2,5.19-16.64,5.19-13.33,0-23.97-9.48-23.97-25.76Zm33.64-4.47c0-8.41-3.85-13.33-11-13.33-6.17,0-11.63,4.74-12.61,13.33h23.62Z"/>
  <path class="cls-1" d="m388.39,213.69h-.27l-.98,5.1h-8.05v-71.3h10.29v18.88l-.36,8.41c4.2-3.67,9.48-6.44,14.67-6.44,12.43,0,19.5,9.93,19.5,25.05,0,16.91-10.11,26.57-21.2,26.57-4.47,0-9.39-2.33-13.6-6.26Zm24.15-20.13c0-10.29-3.31-16.64-11.54-16.64-3.85,0-7.6,1.97-11.63,5.99v24.06c3.76,3.31,7.6,4.47,10.65,4.47,7.16,0,12.52-6.35,12.52-17.89Z"/>
  <path class="cls-1" d="m444.04,169.68h58.59c1.88,0,5.19-.09,7.51-.45v9.21c-2.15-.09-5.19-.18-7.51-.18h-23.08c-.36,9.48-2.15,17.35-5.55,23.8-3.22,6.08-10.02,12.7-17.8,16.73l-8.23-6.08c6.62-2.68,13.06-7.87,16.55-13.33,3.85-5.99,5.01-13.06,5.37-21.11h-25.85c-2.68,0-5.64.09-8.14.27v-9.3c2.51.27,5.37.45,8.14.45Zm11.09-22.54h30.24c2.77,0,6.17-.18,8.94-.54v9.21c-2.86-.18-6.08-.36-8.94-.36h-30.15c-3.04,0-6.35.18-8.77.36v-9.21c2.68.36,5.73.54,8.68.54Zm51.35,4.92l-5.9,2.5c-1.79-3.58-4.65-8.95-7.07-12.35l5.73-2.42c2.24,3.22,5.46,8.77,7.25,12.26Zm10.29-3.94l-5.81,2.59c-1.88-3.85-4.83-8.95-7.33-12.35l5.73-2.42c2.41,3.4,5.81,8.95,7.42,12.17Z"/>
  <path class="cls-1" d="m556.64,218.79l-7.6-7.07c16.73-6.17,24.6-13.87,24.6-37.57v-3.58h-23.53v13.42c0,3.58.27,7.42.36,8.68h-9.93c.18-1.25.45-5.01.45-8.68v-13.42h-8.77c-4.2,0-7.87.18-9.3.27v-9.66c1.16.18,5.19.72,9.3.72h8.77v-10.38c0-2.15-.18-4.83-.45-7.16h10.02c-.18,1.25-.45,3.94-.45,7.25v10.29h23.53v-10.38c0-3.58-.27-6.53-.45-7.78h10.11c-.09,1.25-.45,4.2-.45,7.78v10.38h8.32c4.38,0,7.25-.27,8.94-.54v9.48c-1.34-.18-4.56-.27-8.86-.27h-8.41v3.04c0,23.08-5.28,35.87-26.21,45.18Zm39.36-62.8l-5.19,1.79c-1.34-3.85-3.13-8.95-4.92-12.43l5.1-1.61c1.61,3.31,3.85,8.77,5.01,12.26Zm9.13-2.77l-5.19,1.7c-1.34-3.94-3.22-8.95-5.01-12.43l5.1-1.61c1.7,3.4,3.94,8.77,5.1,12.35Z"/>
  <path class="cls-1" d="m648.11,165.66c9.3-5.73,18.79-14.04,24.87-21.29l7.51,7.16c-6.8,6.89-15.21,13.78-24.06,19.59v37.12c0,3.67.18,8.59.63,10.56h-11.09c.27-1.97.54-6.89.54-10.56v-31.13c-9.39,5.1-21.2,10.29-33.01,13.87l-4.38-8.86c15.66-4.2,29.07-10.29,39-16.46Z"/>
  <path class="cls-1" d="m725.2,196.87c14.4-8.86,25.58-22.27,31.04-33.73l5.46,9.75c-6.44,11.63-17.44,23.8-31.4,32.38-9.04,5.55-20.4,10.82-34.26,13.33l-5.99-9.21c14.94-2.24,26.57-7.25,35.16-12.52Zm-3.04-28.63l-7.07,7.25c-4.65-4.74-15.74-14.49-22.36-18.96l6.53-6.98c6.26,4.2,17.89,13.51,22.9,18.7Z"/>
  <path class="cls-1" d="m800.88,191.51c-1.25-2.68-4.29-7.69-6.98-11.81v39.09h-8.05v-36.23c-3.31,8.14-7.33,15.74-11.45,20.84-.8-2.24-2.77-5.64-4.03-7.69,5.28-6.08,11-16.73,14.31-26.21h-13.15v-7.78h14.31v-11.99c-3.85.72-7.69,1.25-11.27,1.79-.27-1.79-1.43-4.74-2.32-6.44,10.02-1.61,21.47-4.2,28.45-7.25l4.74,6.8c-3.4,1.34-7.34,2.42-11.54,3.4v13.69h12.52v7.78h-12.52v1.25c2.68,2.77,10.29,11.9,11.99,14.22l-5.01,6.53Zm41.95,4.38v22.9h-8.23v-21.47l-28.18,4.74-1.25-7.96,29.43-4.92v-52.42h8.23v51.08l9.75-1.61,1.25,7.78-11,1.88Zm-19.5-12.08c-2.95-3.85-9.48-9.57-14.94-13.33l5.28-4.83c5.37,3.58,12.17,8.95,15.3,12.7l-5.64,5.46Zm2.24-23.53c-2.68-3.76-8.77-9.21-13.87-12.97l5.46-4.74c5.1,3.49,11.27,8.68,14.22,12.43l-5.81,5.28Z"/>
</svg>