<?xml version="1.0" encoding="UTF-8"?>
<svg id="_レイヤー_1" data-name="レイヤー 1" xmlns="http://www.w3.org/2000/svg" xmlns:xlink="http://www.w3.org/1999/xlink" viewBox="0 0 566.93 566.93">
  <defs>
    <style>
      .cls-1 {
        fill: url(#_名称未設定グラデーション_6);
      }

      .cls-2 {
        fill: url(#_名称未設定グラデーション_6-4);
      }

      .cls-3 {
        fill: url(#_名称未設定グラデーション_6-3);
      }

      .cls-4 {
        fill: url(#_名称未設定グラデーション_6-2);
      }
    </style>
    <linearGradient id="_名称未設定グラデーション_6" data-name="名称未設定グラデーション 6" x1="76.36" y1="106.64" x2="76.36" y2="460.29" gradientUnits="userSpaceOnUse">
      <stop offset="0" stop-color="#1166b0"/>
      <stop offset=".09" stop-color="#287ab4"/>
      <stop offset=".23" stop-color="#4493b9"/>
      <stop offset=".38" stop-color="#5aa6bd"/>
      <stop offset=".54" stop-color="#6ab3c0"/>
      <stop offset=".73" stop-color="#73bbc2"/>
      <stop offset="1" stop-color="#76bec3"/>
    </linearGradient>
    <linearGradient id="_名称未設定グラデーション_6-2" data-name="名称未設定グラデーション 6" x1="283.21" y1="140.17" x2="469.67" y2="463.13" xlink:href="#_名称未設定グラデーション_6"/>
    <linearGradient id="_名称未設定グラデーション_6-3" data-name="名称未設定グラデーション 6" x1="392.63" y1="394.03" x2="541.56" y2="136.09" xlink:href="#_名称未設定グラデーション_6"/>
    <linearGradient id="_名称未設定グラデーション_6-4" data-name="名称未設定グラデーション 6" x1="117.48" y1="427.19" x2="304.18" y2="103.82" xlink:href="#_名称未設定グラデーション_6"/>
  </defs>
  <polygon class="cls-1" points="142.94 106.64 76.36 106.64 9.79 283.46 76.36 460.29 142.94 460.29 76.36 283.46 142.94 106.64"/>
  <polygon class="cls-4" points="474.58 460.29 408.01 460.29 294.94 192.9 328.22 114.18 474.58 460.29"/>
  <polygon class="cls-3" points="557.14 283.47 493.56 452.3 458.34 369.02 490.56 283.47 423.98 106.64 490.56 106.64 557.14 283.47"/>
  <polygon class="cls-2" points="309.07 106.64 162.52 453.2 131.16 369.91 242.49 106.64 309.07 106.64"/>
</svg>