<?xml version="1.0" encoding="UTF-8"?>
<svg id="_レイヤー_1" data-name="レイヤー 1" xmlns="http://www.w3.org/2000/svg" viewBox="0 0 390 844">
  <defs>
    <style>
      .cls-1 {
        fill: #1260a4;
      }

      .cls-2 {
        fill: #73b6ba;
      }
    </style>
  </defs>
  <path class="cls-1" d="m275.12,184.35c-37.47-12.67-73.47-6.33-80.4,14.16-4.01,11.86,2.59,25.86,16.12,38.01l-9.6,16.98,15.26-12.32c9.13,6.93,20.56,13.01,33.52,17.39,37.47,12.67,73.47,6.33,80.4-14.16s-17.82-47.39-55.29-60.06Z"/>
  <path class="cls-2" d="m110.12,214.17c33.17-9.14,64.11-1.83,69.11,16.31,2.89,10.5-3.54,22.33-15.9,32.2l7.49,15.22-12.64-11.46c-8.27,5.56-18.51,10.27-29.97,13.43-33.17,9.14-64.11,1.83-69.11-16.31-5-18.15,17.84-40.26,51.01-49.4Z"/>
</svg>