<?xml version="1.0" encoding="utf-8"?>
<!-- Generator: Adobe Illustrator 27.7.0, SVG Export Plug-In . SVG Version: 6.00 Build 0)  -->
<svg version="1.1" id="_レイヤー_1" xmlns="http://www.w3.org/2000/svg" xmlns:xlink="http://www.w3.org/1999/xlink" x="0px"
	 y="0px" viewBox="0 0 298 143" style="enable-background:new 0 0 298 143;" xml:space="preserve">
<style type="text/css">
	.st0{fill:#1260A4;}
	.st1{fill:#73B6BA;}
</style>
<path class="st0" d="M229.1,22.5c-37.5-12.7-73.5-6.3-80.4,14.2c-4,11.9,2.6,25.9,16.1,38l-9.6,17l15.3-12.3
	c9.1,6.9,20.6,13,33.5,17.4c37.5,12.7,73.5,6.3,80.4-14.2S266.6,35.1,229.1,22.5L229.1,22.5z"/>
<path class="st1" d="M64.1,52.3c33.2-9.1,64.1-1.8,69.1,16.3c2.9,10.5-3.5,22.3-15.9,32.2l7.5,15.2l-12.6-11.5
	c-8.3,5.6-18.5,10.3-30,13.4c-33.2,9.1-64.1,1.8-69.1-16.3C8.1,83.5,30.9,61.4,64.1,52.3L64.1,52.3z"/>
</svg>
