<?xml version="1.0" encoding="utf-8"?>
<!-- Generator: Adobe Illustrator 27.4.1, SVG Export Plug-In . SVG Version: 6.00 Build 0)  -->
<svg version="1.1" id="Layer_1" xmlns="http://www.w3.org/2000/svg" xmlns:xlink="http://www.w3.org/1999/xlink" x="0px" y="0px"
	 viewBox="0 0 1482.84 1086.28" style="enable-background:new 0 0 1482.84 1086.28;" xml:space="preserve">
<style type="text/css">
	.st0{fill:#002A47;}
	.st1{fill:#FFFFFF;}
</style>
<g>
	<g>
		<g>
			<g>
				<g>
					<path class="st0" d="M1033.43,133.35c-5.36,0-9.71-4.34-9.71-9.71V75.71c0-5.36,4.34-9.71,9.71-9.71
						c5.36,0,9.71,4.34,9.71,9.71v47.93C1043.14,129,1038.8,133.35,1033.43,133.35z"/>
				</g>
			</g>
			<g>
				<g>
					<path class="st0" d="M1257.13,226c-2.48,0-4.97-0.95-6.86-2.84c-3.79-3.79-3.79-9.94,0-13.73l33.9-33.89
						c3.79-3.79,9.93-3.79,13.73,0c3.79,3.79,3.79,9.94,0,13.72l-33.9,33.89C1262.09,225.06,1259.61,226,1257.13,226z"/>
				</g>
			</g>
			<g>
				<g>
					<path class="st0" d="M775.84,707.29c-2.48,0-4.97-0.95-6.86-2.84c-3.79-3.79-3.79-9.94,0-13.72l33.89-33.89
						c3.79-3.79,9.93-3.79,13.73,0c3.79,3.79,3.79,9.94,0,13.73l-33.89,33.89C780.81,706.34,778.33,707.29,775.84,707.29z"/>
				</g>
			</g>
			<g>
				<g>
					<path class="st0" d="M1397.72,449.7h-47.93c-5.36,0-9.71-4.34-9.71-9.71c0-5.36,4.34-9.71,9.71-9.71h47.93
						c5.36,0,9.71,4.34,9.71,9.71C1407.43,445.36,1403.08,449.7,1397.72,449.7z"/>
				</g>
			</g>
			<g>
				<g>
					<path class="st0" d="M717.08,449.7h-47.93c-5.36,0-9.71-4.34-9.71-9.71c0-5.36,4.34-9.71,9.71-9.71h47.93
						c5.36,0,9.71,4.34,9.71,9.71C726.78,445.36,722.44,449.7,717.08,449.7z"/>
				</g>
			</g>
			<g>
				<g>
					<path class="st0" d="M1291.02,707.29c-2.48,0-4.97-0.95-6.86-2.84l-33.9-33.89c-3.79-3.79-3.79-9.93,0-13.73
						c3.79-3.79,9.93-3.79,13.73,0l33.9,33.89c3.79,3.79,3.79,9.93,0,13.72C1295.99,706.34,1293.51,707.29,1291.02,707.29z"/>
				</g>
			</g>
			<g>
				<g>
					<path class="st0" d="M809.74,226c-2.48,0-4.97-0.95-6.86-2.84l-33.89-33.89c-3.79-3.79-3.79-9.94,0-13.72
						c3.79-3.79,9.93-3.79,13.72,0l33.89,33.89c3.79,3.79,3.79,9.94,0,13.73C814.7,225.06,812.22,226,809.74,226z"/>
				</g>
			</g>
			<g>
				<g>
					<path class="st0" d="M1155.61,157.89c-1.25,0-2.52-0.24-3.74-0.76c-4.94-2.07-7.28-7.76-5.21-12.7l18.51-44.21
						c2.07-4.95,7.77-7.27,12.7-5.21c4.94,2.07,7.28,7.76,5.21,12.7l-18.51,44.21C1163.01,155.65,1159.4,157.89,1155.61,157.89z"/>
				</g>
			</g>
			<g>
				<g>
					<path class="st0" d="M1326.17,329.75c-3.82,0-7.44-2.27-8.99-6.03c-2.03-4.96,0.34-10.63,5.3-12.66l44.35-18.17
						c4.96-2.03,10.63,0.34,12.66,5.3c2.03,4.96-0.34,10.63-5.3,12.66l-44.35,18.17C1328.64,329.52,1327.39,329.75,1326.17,329.75z"
						/>
				</g>
			</g>
			<g>
				<g>
					<path class="st0" d="M696.35,587.83c-3.82,0-7.45-2.27-8.99-6.03c-2.03-4.96,0.34-10.63,5.3-12.66l44.35-18.17
						c4.95-2.03,10.63,0.34,12.66,5.3c2.03,4.96-0.34,10.63-5.3,12.66l-44.35,18.17C698.83,587.6,697.58,587.83,696.35,587.83z"/>
				</g>
			</g>
			<g>
				<g>
					<path class="st0" d="M1369.45,590.39c-1.25,0-2.52-0.24-3.74-0.76l-44.22-18.51c-4.94-2.07-7.28-7.76-5.21-12.7
						c2.07-4.95,7.77-7.27,12.7-5.21l44.22,18.51c4.94,2.07,7.28,7.76,5.21,12.7C1376.85,588.15,1373.25,590.39,1369.45,590.39z"/>
				</g>
			</g>
			<g>
				<g>
					<path class="st0" d="M741.62,327.53c-1.25,0-2.52-0.24-3.74-0.76l-44.21-18.51c-4.94-2.07-7.28-7.76-5.21-12.7
						c2.07-4.95,7.77-7.27,12.7-5.21l44.21,18.51c4.94,2.07,7.28,7.76,5.21,12.7C749.02,325.29,745.41,327.53,741.62,327.53z"/>
				</g>
			</g>
			<g>
				<g>
					<path class="st0" d="M913.49,156.97c-3.82,0-7.45-2.27-8.99-6.03l-18.17-44.35c-2.03-4.96,0.34-10.63,5.3-12.66
						c4.96-2.02,10.63,0.34,12.66,5.3l18.17,44.35c2.03,4.96-0.34,10.63-5.3,12.66C915.96,156.74,914.71,156.97,913.49,156.97z"/>
				</g>
			</g>
		</g>
		<g>
			<path class="st0" d="M1118.47,901.82H954.51c-9.25,0-16.75-7.5-16.75-16.75l0,0c0-9.25,7.5-16.75,16.75-16.75h163.96
				c9.25,0,16.75,7.5,16.75,16.75l0,0C1135.22,894.32,1127.72,901.82,1118.47,901.82z"/>
			<path class="st0" d="M1118.47,954.43H954.51c-9.25,0-16.75-7.5-16.75-16.75l0,0c0-9.25,7.5-16.75,16.75-16.75h163.96
				c9.25,0,16.75,7.5,16.75,16.75l0,0C1135.22,946.93,1127.72,954.43,1118.47,954.43z"/>
			<path class="st0" d="M996.7,974.25c-4.06,0-7.14,3.69-6.39,7.68c4.04,21.58,22.95,37.92,45.7,37.92
				c22.75,0,41.66-16.34,45.7-37.92c0.75-3.99-2.33-7.68-6.39-7.68H996.7z"/>
			<g>
				<path class="st0" d="M1101.12,847.21H969.47c-22.81,0-42.01-17.83-43.72-40.58c-5.58-74.22-35.86-121.25-67.93-171.04
					c-34.97-54.3-71.13-110.44-71.13-201.23c0-122.59,87.69-225.77,208.52-245.32c28.25-4.57,58.02-4.21,86.1,1.03
					c117.39,21.95,202.59,124.69,202.59,244.29c0,90.79-36.16,146.94-71.14,201.23c-32.07,49.79-62.36,96.82-67.93,171.04
					C1143.12,829.38,1123.92,847.21,1101.12,847.21z M1035.25,218.2c-11.73,0-23.44,0.92-34.87,2.77
					c-105.07,17.01-181.34,106.74-181.34,213.38c0,81.27,32.05,131.03,65.98,183.72c32.84,50.99,66.8,103.72,72.99,186.14
					c0.45,5.97,5.48,10.65,11.45,10.65h131.65c6.07,0,11-4.58,11.45-10.65c6.19-82.41,40.16-135.14,73-186.14
					c33.93-52.68,65.98-102.44,65.98-183.72c0-104.03-74.09-193.39-176.18-212.48C1062.28,219.42,1048.76,218.2,1035.25,218.2z"/>
			</g>
			<g>
				<path class="st0" d="M914.84,590.1c-5,0-9.92-2.31-13.09-6.65C811.93,460.08,878.14,344.29,881,339.43
					c4.53-7.7,14.44-10.27,22.15-5.75c7.69,4.52,10.27,14.42,5.77,22.11c-2.48,4.27-57.99,102.87,18.99,208.61
					c5.26,7.22,3.67,17.34-3.55,22.6C921.47,589.09,918.14,590.1,914.84,590.1z"/>
			</g>
		</g>
	</g>
	<g>
		<g>
			<path class="st0" d="M407.18,901.82H243.23c-9.25,0-16.75-7.5-16.75-16.75l0,0c0-9.25,7.5-16.75,16.75-16.75h163.96
				c9.25,0,16.75,7.5,16.75,16.75l0,0C423.94,894.32,416.44,901.82,407.18,901.82z"/>
			<path class="st0" d="M407.18,954.43H243.23c-9.25,0-16.75-7.5-16.75-16.75l0,0c0-9.25,7.5-16.75,16.75-16.75h163.96
				c9.25,0,16.75,7.5,16.75,16.75l0,0C423.94,946.93,416.44,954.43,407.18,954.43z"/>
			<path class="st0" d="M285.42,974.25c-4.06,0-7.14,3.69-6.39,7.68c4.04,21.58,22.95,37.92,45.7,37.92
				c22.75,0,41.66-16.34,45.7-37.92c0.75-3.99-2.33-7.68-6.39-7.68H285.42z"/>
			<g>
				<path class="st0" d="M389.83,847.21H258.19c-22.81,0-42.01-17.83-43.72-40.59c-5.58-74.22-35.86-121.25-67.93-171.04
					c-34.97-54.3-71.13-110.44-71.13-201.23c0-122.6,87.69-225.77,208.52-245.32c28.25-4.57,58.01-4.21,86.1,1.03
					c117.39,21.95,202.59,124.69,202.59,244.29c0,90.79-36.16,146.94-71.14,201.23c-32.07,49.79-62.36,96.82-67.93,171.04
					C431.84,829.38,412.64,847.21,389.83,847.21z"/>
			</g>
			<g>
				<path class="st1" d="M203.56,590.1c-5,0-9.92-2.31-13.09-6.65c-89.81-123.37-23.61-239.15-20.75-244.02
					c4.53-7.7,14.45-10.27,22.15-5.75c7.69,4.53,10.27,14.42,5.77,22.11c-2.48,4.27-57.99,102.87,18.99,208.61
					c5.26,7.22,3.67,17.34-3.55,22.6C210.19,589.09,206.86,590.1,203.56,590.1z"/>
			</g>
		</g>
	</g>
</g>
</svg>
